<mxfile host="app.diagrams.net" modified="2024-01-13T16:13:02.235Z" agent="Mozilla/5.0 (Macintosh; Intel Mac OS X 10_15_7) AppleWebKit/537.36 (KHTML, like Gecko) Chrome/120.0.0.0 Safari/537.36" etag="s6cZKut30unww_NcJnCp" version="22.1.18" type="device">
  <diagram name="Page-1" id="mHryi9FxQg6rtNW1_ikM">
    <mxGraphModel dx="2485" dy="1930" grid="1" gridSize="10" guides="1" tooltips="1" connect="1" arrows="0" fold="1" page="0" pageScale="1" pageWidth="850" pageHeight="1100" math="0" shadow="0">
      <root>
        <mxCell id="0" />
        <mxCell id="1" parent="0" />
        <mxCell id="u1CNOt_KkvuoJOrz82CR-320" value="&amp;lt;AbstractView&amp;gt;" style="rounded=0;whiteSpace=wrap;html=1;fillColor=#f5f5f5;strokeColor=#007FFF;fontColor=#007FFF;fillOpacity=0;strokeWidth=2;flipH=1;" parent="1" vertex="1">
          <mxGeometry x="6920" y="442" width="100" height="27" as="geometry" />
        </mxCell>
        <mxCell id="u1CNOt_KkvuoJOrz82CR-305" value="" style="rounded=0;whiteSpace=wrap;html=1;strokeColor=none;fillColor=#B266FF;opacity=30;" parent="1" vertex="1">
          <mxGeometry x="6958" y="270" width="82" height="70" as="geometry" />
        </mxCell>
        <mxCell id="u1CNOt_KkvuoJOrz82CR-271" value="" style="rounded=0;whiteSpace=wrap;html=1;fillColor=none;strokeColor=#009999;fontColor=#A8A8A8;fillOpacity=0;strokeWidth=2;" parent="1" vertex="1">
          <mxGeometry x="2150" y="498" width="760" height="140" as="geometry" />
        </mxCell>
        <mxCell id="u1CNOt_KkvuoJOrz82CR-240" value="" style="rounded=0;whiteSpace=wrap;html=1;strokeColor=none;fillColor=#B266FF;opacity=30;" parent="1" vertex="1">
          <mxGeometry x="4874" y="210" width="82" height="72" as="geometry" />
        </mxCell>
        <mxCell id="u1CNOt_KkvuoJOrz82CR-10" value="" style="rounded=0;whiteSpace=wrap;html=1;fillColor=none;strokeColor=#66FF66;fontColor=#B266FF;fillOpacity=0;strokeWidth=2;" parent="1" vertex="1">
          <mxGeometry x="2190" y="808" width="660" height="89" as="geometry" />
        </mxCell>
        <mxCell id="u1CNOt_KkvuoJOrz82CR-2" value="" style="rounded=0;whiteSpace=wrap;html=1;fillColor=none;strokeColor=#B266FF;fontColor=#A8A8A8;fillOpacity=0;strokeWidth=2;" parent="1" vertex="1">
          <mxGeometry x="2150" y="648" width="760" height="150" as="geometry" />
        </mxCell>
        <mxCell id="8W7GUWQGtb0MU_4nZzis-23" value="" style="rounded=0;whiteSpace=wrap;html=1;fontFamily=Helvetica;fontSize=11;fontColor=#FF0080;fillColor=none;strokeColor=#FF0080;movable=1;resizable=1;rotatable=1;deletable=1;editable=1;locked=0;connectable=1;strokeWidth=2;" parent="1" vertex="1">
          <mxGeometry x="2542" y="225" width="307" height="166" as="geometry" />
        </mxCell>
        <mxCell id="8W7GUWQGtb0MU_4nZzis-69" value="" style="rounded=0;whiteSpace=wrap;html=1;fontFamily=Helvetica;fontSize=11;fontColor=default;fillColor=none;strokeColor=#FF3333;strokeWidth=2;" parent="1" vertex="1">
          <mxGeometry x="2405" y="403" width="270" height="70" as="geometry" />
        </mxCell>
        <mxCell id="8W7GUWQGtb0MU_4nZzis-20" value="" style="rounded=0;whiteSpace=wrap;html=1;fontFamily=Helvetica;fontSize=11;fontColor=default;fillColor=none;strokeColor=#FF0080;" parent="1" vertex="1">
          <mxGeometry x="1320" y="235" width="270" height="60" as="geometry" />
        </mxCell>
        <mxCell id="8W7GUWQGtb0MU_4nZzis-2" value="" style="rounded=0;whiteSpace=wrap;html=1;strokeColor=#3399FF;fillColor=none;" parent="1" vertex="1">
          <mxGeometry x="890" y="230" width="290" height="140" as="geometry" />
        </mxCell>
        <mxCell id="GL-utDqGiQ9SbgEWFXb8-1" style="edgeStyle=orthogonalEdgeStyle;rounded=0;orthogonalLoop=1;jettySize=auto;html=1;endArrow=block;endFill=0;fillColor=#f5f5f5;strokeColor=#A8A8A8;fillOpacity=0;fontColor=#A8A8A8;endSize=4;" parent="1" source="GL-utDqGiQ9SbgEWFXb8-3" target="GL-utDqGiQ9SbgEWFXb8-4" edge="1">
          <mxGeometry relative="1" as="geometry" />
        </mxCell>
        <mxCell id="GL-utDqGiQ9SbgEWFXb8-2" style="edgeStyle=orthogonalEdgeStyle;rounded=0;orthogonalLoop=1;jettySize=auto;html=1;exitX=0.5;exitY=0;exitDx=0;exitDy=0;entryX=0.5;entryY=1;entryDx=0;entryDy=0;endArrow=classic;endFill=1;fillColor=#f5f5f5;strokeColor=#A8A8A8;fillOpacity=100;fontColor=#A8A8A8;endSize=4;" parent="1" source="GL-utDqGiQ9SbgEWFXb8-3" target="GL-utDqGiQ9SbgEWFXb8-5" edge="1">
          <mxGeometry relative="1" as="geometry" />
        </mxCell>
        <mxCell id="GL-utDqGiQ9SbgEWFXb8-3" value="FeedViewController" style="rounded=0;whiteSpace=wrap;html=1;fillColor=#f5f5f5;strokeColor=#A8A8A8;fontColor=#A8A8A8;fillOpacity=0;" parent="1" vertex="1">
          <mxGeometry x="1193" y="373" width="110" height="30" as="geometry" />
        </mxCell>
        <mxCell id="GL-utDqGiQ9SbgEWFXb8-4" value="UIViewController" style="rounded=0;whiteSpace=wrap;html=1;fillColor=#f5f5f5;strokeColor=#A8A8A8;fontColor=#A8A8A8;fillOpacity=0;" parent="1" vertex="1">
          <mxGeometry x="1193" y="433" width="110" height="30" as="geometry" />
        </mxCell>
        <mxCell id="GL-utDqGiQ9SbgEWFXb8-5" value="&amp;lt;Feed Feature&amp;gt;" style="rounded=0;whiteSpace=wrap;html=1;fillColor=#f5f5f5;strokeColor=#FF3333;fontColor=#FF3333;fillOpacity=0;" parent="1" vertex="1">
          <mxGeometry x="1201" y="312" width="94" height="30" as="geometry" />
        </mxCell>
        <mxCell id="GL-utDqGiQ9SbgEWFXb8-6" style="edgeStyle=orthogonalEdgeStyle;shape=connector;rounded=0;orthogonalLoop=1;jettySize=auto;html=1;entryX=0;entryY=0.5;entryDx=0;entryDy=0;dashed=1;labelBackgroundColor=default;fontFamily=Helvetica;fontSize=12;fontColor=#3399FF;endArrow=block;endFill=0;exitX=0.5;exitY=1;exitDx=0;exitDy=0;fillColor=#f5f5f5;strokeColor=#3399FF;fillOpacity=0;endSize=4;" parent="1" source="GL-utDqGiQ9SbgEWFXb8-7" target="GL-utDqGiQ9SbgEWFXb8-5" edge="1">
          <mxGeometry relative="1" as="geometry" />
        </mxCell>
        <mxCell id="8W7GUWQGtb0MU_4nZzis-6" style="edgeStyle=orthogonalEdgeStyle;rounded=0;orthogonalLoop=1;jettySize=auto;html=1;entryX=1;entryY=0.5;entryDx=0;entryDy=0;strokeColor=#3399FF;endSize=4;" parent="1" source="GL-utDqGiQ9SbgEWFXb8-7" target="8W7GUWQGtb0MU_4nZzis-3" edge="1">
          <mxGeometry relative="1" as="geometry" />
        </mxCell>
        <mxCell id="8W7GUWQGtb0MU_4nZzis-7" style="edgeStyle=orthogonalEdgeStyle;rounded=0;orthogonalLoop=1;jettySize=auto;html=1;exitX=0.25;exitY=1;exitDx=0;exitDy=0;entryX=1;entryY=0.5;entryDx=0;entryDy=0;strokeColor=#3399FF;endSize=4;" parent="1" source="GL-utDqGiQ9SbgEWFXb8-7" target="8W7GUWQGtb0MU_4nZzis-4" edge="1">
          <mxGeometry relative="1" as="geometry" />
        </mxCell>
        <mxCell id="GL-utDqGiQ9SbgEWFXb8-7" value="RemoteFeedLoader" style="rounded=0;whiteSpace=wrap;html=1;fillColor=#f5f5f5;strokeColor=#3399FF;fontColor=#3399FF;fillOpacity=0;" parent="1" vertex="1">
          <mxGeometry x="1050" y="240" width="115" height="30" as="geometry" />
        </mxCell>
        <mxCell id="8W7GUWQGtb0MU_4nZzis-18" style="edgeStyle=orthogonalEdgeStyle;shape=connector;rounded=0;orthogonalLoop=1;jettySize=auto;html=1;exitX=1;exitY=0.5;exitDx=0;exitDy=0;entryX=0;entryY=0.5;entryDx=0;entryDy=0;labelBackgroundColor=default;strokeColor=#FF0080;align=center;verticalAlign=middle;fontFamily=Helvetica;fontSize=11;fontColor=#A8A8A8;endArrow=classic;endSize=4;endFill=1;fillColor=#f5f5f5;" parent="1" source="GL-utDqGiQ9SbgEWFXb8-9" target="8W7GUWQGtb0MU_4nZzis-17" edge="1">
          <mxGeometry relative="1" as="geometry" />
        </mxCell>
        <mxCell id="8W7GUWQGtb0MU_4nZzis-19" style="edgeStyle=orthogonalEdgeStyle;shape=connector;rounded=0;orthogonalLoop=1;jettySize=auto;html=1;exitX=0.5;exitY=1;exitDx=0;exitDy=0;entryX=1;entryY=0.5;entryDx=0;entryDy=0;labelBackgroundColor=default;strokeColor=#A8A8A8;align=center;verticalAlign=middle;fontFamily=Helvetica;fontSize=11;fontColor=#A8A8A8;endArrow=block;endSize=4;dashed=1;endFill=0;fillColor=#f5f5f5;" parent="1" source="GL-utDqGiQ9SbgEWFXb8-9" target="GL-utDqGiQ9SbgEWFXb8-5" edge="1">
          <mxGeometry relative="1" as="geometry" />
        </mxCell>
        <mxCell id="GL-utDqGiQ9SbgEWFXb8-9" value="LocalFeedLoader" style="rounded=0;whiteSpace=wrap;html=1;fillColor=#f5f5f5;strokeColor=#FF0080;fontColor=#FF0080;fillOpacity=0;" parent="1" vertex="1">
          <mxGeometry x="1330" y="250" width="105" height="30" as="geometry" />
        </mxCell>
        <mxCell id="GL-utDqGiQ9SbgEWFXb8-10" style="edgeStyle=orthogonalEdgeStyle;shape=connector;rounded=0;orthogonalLoop=1;jettySize=auto;html=1;entryX=0.75;entryY=0;entryDx=0;entryDy=0;labelBackgroundColor=default;fontFamily=Helvetica;fontSize=11;fontColor=#A8A8A8;endArrow=classic;endFill=1;exitX=0.25;exitY=1;exitDx=0;exitDy=0;fillColor=#f5f5f5;strokeColor=#A8A8A8;fillOpacity=100;endSize=4;" parent="1" source="GL-utDqGiQ9SbgEWFXb8-13" target="GL-utDqGiQ9SbgEWFXb8-7" edge="1">
          <mxGeometry relative="1" as="geometry" />
        </mxCell>
        <mxCell id="GL-utDqGiQ9SbgEWFXb8-11" style="edgeStyle=orthogonalEdgeStyle;shape=connector;rounded=0;orthogonalLoop=1;jettySize=auto;html=1;exitX=0.75;exitY=1;exitDx=0;exitDy=0;entryX=0.5;entryY=0;entryDx=0;entryDy=0;labelBackgroundColor=default;fontFamily=Helvetica;fontSize=11;fontColor=#A8A8A8;endArrow=classic;endFill=1;fillColor=#f5f5f5;strokeColor=#A8A8A8;fillOpacity=100;endSize=4;" parent="1" source="GL-utDqGiQ9SbgEWFXb8-13" target="GL-utDqGiQ9SbgEWFXb8-9" edge="1">
          <mxGeometry relative="1" as="geometry" />
        </mxCell>
        <mxCell id="GL-utDqGiQ9SbgEWFXb8-12" style="edgeStyle=orthogonalEdgeStyle;shape=connector;rounded=0;orthogonalLoop=1;jettySize=auto;html=1;entryX=0.5;entryY=0;entryDx=0;entryDy=0;dashed=1;labelBackgroundColor=default;fontFamily=Helvetica;fontSize=11;fontColor=#A8A8A8;endArrow=block;endFill=0;fillColor=#f5f5f5;strokeColor=#A8A8A8;fillOpacity=0;endSize=4;" parent="1" source="GL-utDqGiQ9SbgEWFXb8-13" target="GL-utDqGiQ9SbgEWFXb8-5" edge="1">
          <mxGeometry relative="1" as="geometry" />
        </mxCell>
        <mxCell id="GL-utDqGiQ9SbgEWFXb8-13" value="RemoteWithLocalFallbackFeedLoader" style="rounded=0;whiteSpace=wrap;html=1;fillColor=#f5f5f5;strokeColor=#A8A8A8;fontColor=#A8A8A8;fillOpacity=0;" parent="1" vertex="1">
          <mxGeometry x="1139" y="155" width="219" height="30" as="geometry" />
        </mxCell>
        <mxCell id="GL-utDqGiQ9SbgEWFXb8-14" style="edgeStyle=orthogonalEdgeStyle;shape=connector;rounded=0;orthogonalLoop=1;jettySize=auto;html=1;exitX=0;exitY=0.5;exitDx=0;exitDy=0;entryX=1;entryY=0.5;entryDx=0;entryDy=0;labelBackgroundColor=default;fontFamily=Helvetica;fontSize=11;fontColor=#A8A8A8;endArrow=classic;endFill=1;dashed=1;fillColor=#f5f5f5;strokeColor=#A8A8A8;fillOpacity=100;endSize=4;" parent="1" source="GL-utDqGiQ9SbgEWFXb8-18" target="GL-utDqGiQ9SbgEWFXb8-13" edge="1">
          <mxGeometry relative="1" as="geometry" />
        </mxCell>
        <mxCell id="GL-utDqGiQ9SbgEWFXb8-16" style="edgeStyle=orthogonalEdgeStyle;shape=connector;rounded=0;orthogonalLoop=1;jettySize=auto;html=1;exitX=1;exitY=0.75;exitDx=0;exitDy=0;dashed=1;labelBackgroundColor=default;fontFamily=Helvetica;fontSize=11;fontColor=#A8A8A8;endArrow=classic;endFill=1;entryX=1;entryY=0.5;entryDx=0;entryDy=0;fillColor=#f5f5f5;strokeColor=#A8A8A8;fillOpacity=100;endSize=4;" parent="1" source="GL-utDqGiQ9SbgEWFXb8-18" target="GL-utDqGiQ9SbgEWFXb8-3" edge="1">
          <mxGeometry relative="1" as="geometry">
            <mxPoint x="1484.0769230769229" y="403.6923076923076" as="targetPoint" />
            <Array as="points">
              <mxPoint x="1650" y="185" />
              <mxPoint x="1650" y="388" />
            </Array>
          </mxGeometry>
        </mxCell>
        <mxCell id="GL-utDqGiQ9SbgEWFXb8-17" style="edgeStyle=orthogonalEdgeStyle;shape=connector;rounded=0;orthogonalLoop=1;jettySize=auto;html=1;exitX=0.5;exitY=0;exitDx=0;exitDy=0;dashed=1;labelBackgroundColor=default;fontFamily=Helvetica;fontSize=11;fontColor=#A8A8A8;endArrow=classic;endFill=1;fillColor=#f5f5f5;strokeColor=#A8A8A8;fillOpacity=100;endSize=4;" parent="1" source="GL-utDqGiQ9SbgEWFXb8-18" target="GL-utDqGiQ9SbgEWFXb8-7" edge="1">
          <mxGeometry relative="1" as="geometry">
            <Array as="points">
              <mxPoint x="1529" y="120" />
              <mxPoint x="1060" y="120" />
              <mxPoint x="1060" y="180" />
              <mxPoint x="1100" y="180" />
            </Array>
          </mxGeometry>
        </mxCell>
        <mxCell id="GL-utDqGiQ9SbgEWFXb8-18" value="Feed&lt;br&gt;Assembler/Builder/Factory" style="rounded=0;whiteSpace=wrap;html=1;fillColor=#f5f5f5;strokeColor=#A8A8A8;fontColor=#A8A8A8;fillOpacity=0;" parent="1" vertex="1">
          <mxGeometry x="1443" y="140" width="171" height="60" as="geometry" />
        </mxCell>
        <mxCell id="8W7GUWQGtb0MU_4nZzis-3" value="FeedItemsMapper" style="rounded=0;whiteSpace=wrap;html=1;fillColor=#f5f5f5;strokeColor=#3399FF;fontColor=#3399FF;fillOpacity=0;" parent="1" vertex="1">
          <mxGeometry x="910" y="240" width="115" height="30" as="geometry" />
        </mxCell>
        <mxCell id="8W7GUWQGtb0MU_4nZzis-4" value="HTTPClient" style="rounded=0;whiteSpace=wrap;html=1;fillColor=#f5f5f5;strokeColor=#3399FF;fontColor=#3399FF;fillOpacity=0;" parent="1" vertex="1">
          <mxGeometry x="910" y="285" width="115" height="30" as="geometry" />
        </mxCell>
        <mxCell id="8W7GUWQGtb0MU_4nZzis-12" style="edgeStyle=orthogonalEdgeStyle;shape=connector;rounded=0;orthogonalLoop=1;jettySize=auto;html=1;exitX=0.5;exitY=0;exitDx=0;exitDy=0;entryX=0.5;entryY=1;entryDx=0;entryDy=0;labelBackgroundColor=default;strokeColor=#3399FF;align=center;verticalAlign=middle;fontFamily=Helvetica;fontSize=12;fontColor=#3399FF;endArrow=block;endSize=4;dashed=1;endFill=0;fillColor=#f5f5f5;" parent="1" source="8W7GUWQGtb0MU_4nZzis-9" target="8W7GUWQGtb0MU_4nZzis-4" edge="1">
          <mxGeometry relative="1" as="geometry" />
        </mxCell>
        <mxCell id="8W7GUWQGtb0MU_4nZzis-14" style="edgeStyle=orthogonalEdgeStyle;shape=connector;rounded=0;orthogonalLoop=1;jettySize=auto;html=1;labelBackgroundColor=default;strokeColor=#3399FF;align=center;verticalAlign=middle;fontFamily=Helvetica;fontSize=12;fontColor=#3399FF;endArrow=classic;endSize=4;endFill=1;fillColor=#f5f5f5;" parent="1" source="8W7GUWQGtb0MU_4nZzis-9" edge="1">
          <mxGeometry relative="1" as="geometry">
            <mxPoint x="967.5" y="400" as="targetPoint" />
          </mxGeometry>
        </mxCell>
        <mxCell id="8W7GUWQGtb0MU_4nZzis-9" value="URLSessionHTTPClient" style="rounded=0;whiteSpace=wrap;html=1;fillColor=#f5f5f5;strokeColor=#3399FF;fontColor=#3399FF;fillOpacity=0;" parent="1" vertex="1">
          <mxGeometry x="898.75" y="330" width="137.5" height="30" as="geometry" />
        </mxCell>
        <mxCell id="8W7GUWQGtb0MU_4nZzis-13" value="" style="html=1;verticalLabelPosition=bottom;align=center;labelBackgroundColor=#ffffff;verticalAlign=top;strokeWidth=2;strokeColor=#3399FF;shadow=0;dashed=0;shape=mxgraph.ios7.icons.cloud;fontFamily=Helvetica;fontSize=11;fontColor=default;fillColor=#3399FF;" parent="1" vertex="1">
          <mxGeometry x="924.67" y="403" width="78.33" height="47" as="geometry" />
        </mxCell>
        <mxCell id="8W7GUWQGtb0MU_4nZzis-15" value="Feed API module" style="text;html=1;align=center;verticalAlign=middle;resizable=0;points=[];autosize=1;strokeColor=none;fillColor=none;fontSize=12;fontFamily=Helvetica;fontColor=#3399FF;" parent="1" vertex="1">
          <mxGeometry x="880" y="200" width="120" height="30" as="geometry" />
        </mxCell>
        <mxCell id="8W7GUWQGtb0MU_4nZzis-16" style="edgeStyle=orthogonalEdgeStyle;shape=connector;rounded=0;orthogonalLoop=1;jettySize=auto;html=1;exitX=0;exitY=0.75;exitDx=0;exitDy=0;entryX=0.878;entryY=-0.024;entryDx=0;entryDy=0;entryPerimeter=0;labelBackgroundColor=default;strokeColor=#A8A8A8;align=center;verticalAlign=middle;fontFamily=Helvetica;fontSize=11;fontColor=#A8A8A8;endArrow=classic;endSize=4;endFill=1;dashed=1;fillColor=#f5f5f5;" parent="1" source="GL-utDqGiQ9SbgEWFXb8-18" target="GL-utDqGiQ9SbgEWFXb8-9" edge="1">
          <mxGeometry relative="1" as="geometry" />
        </mxCell>
        <mxCell id="8W7GUWQGtb0MU_4nZzis-17" value="&amp;lt;FeedStore&amp;gt;" style="rounded=0;whiteSpace=wrap;html=1;fillColor=#f5f5f5;strokeColor=#FF0080;fontColor=#FF0080;fillOpacity=0;" parent="1" vertex="1">
          <mxGeometry x="1470" y="250" width="105" height="30" as="geometry" />
        </mxCell>
        <mxCell id="8W7GUWQGtb0MU_4nZzis-21" value="Feed Cache module" style="text;html=1;align=center;verticalAlign=middle;resizable=0;points=[];autosize=1;strokeColor=none;fillColor=none;fontSize=12;fontFamily=Helvetica;fontColor=#FF0080;" parent="1" vertex="1">
          <mxGeometry x="1470" y="210" width="130" height="30" as="geometry" />
        </mxCell>
        <mxCell id="8W7GUWQGtb0MU_4nZzis-22" value="Feed&lt;br&gt;Backend" style="text;html=1;align=center;verticalAlign=middle;resizable=0;points=[];autosize=1;strokeColor=none;fillColor=none;fontSize=12;fontFamily=Helvetica;fontColor=#FFFFFF;" parent="1" vertex="1">
          <mxGeometry x="931" y="413" width="70" height="40" as="geometry" />
        </mxCell>
        <mxCell id="8W7GUWQGtb0MU_4nZzis-24" value="" style="rounded=0;whiteSpace=wrap;html=1;strokeColor=#3399FF;fillColor=none;strokeWidth=2;" parent="1" vertex="1">
          <mxGeometry x="2100" y="238.5" width="290" height="173.5" as="geometry" />
        </mxCell>
        <mxCell id="u1CNOt_KkvuoJOrz82CR-272" style="edgeStyle=orthogonalEdgeStyle;rounded=0;orthogonalLoop=1;jettySize=auto;html=1;exitX=0.75;exitY=0;exitDx=0;exitDy=0;entryX=0.25;entryY=1;entryDx=0;entryDy=0;strokeColor=#B266FF;endSize=4;strokeWidth=2;" parent="1" source="8W7GUWQGtb0MU_4nZzis-27" target="u1CNOt_KkvuoJOrz82CR-151" edge="1">
          <mxGeometry relative="1" as="geometry" />
        </mxCell>
        <mxCell id="u1CNOt_KkvuoJOrz82CR-273" style="edgeStyle=orthogonalEdgeStyle;rounded=0;orthogonalLoop=1;jettySize=auto;html=1;exitX=0.314;exitY=1.008;exitDx=0;exitDy=0;entryX=0.75;entryY=0;entryDx=0;entryDy=0;endArrow=block;strokeColor=#B266FF;endSize=6;strokeWidth=2;endFill=0;exitPerimeter=0;" parent="1" source="8W7GUWQGtb0MU_4nZzis-27" target="8W7GUWQGtb0MU_4nZzis-28" edge="1">
          <mxGeometry relative="1" as="geometry" />
        </mxCell>
        <mxCell id="u1CNOt_KkvuoJOrz82CR-274" style="edgeStyle=orthogonalEdgeStyle;rounded=0;orthogonalLoop=1;jettySize=auto;html=1;exitX=0.076;exitY=1;exitDx=0;exitDy=0;entryX=0.75;entryY=0;entryDx=0;entryDy=0;exitPerimeter=0;strokeColor=#B266FF;endSize=4;strokeWidth=2;" parent="1" source="8W7GUWQGtb0MU_4nZzis-27" target="u1CNOt_KkvuoJOrz82CR-17" edge="1">
          <mxGeometry relative="1" as="geometry" />
        </mxCell>
        <mxCell id="u1CNOt_KkvuoJOrz82CR-275" style="edgeStyle=orthogonalEdgeStyle;rounded=0;orthogonalLoop=1;jettySize=auto;html=1;exitX=0;exitY=0.5;exitDx=0;exitDy=0;entryX=1;entryY=0.5;entryDx=0;entryDy=0;strokeColor=#B266FF;endSize=4;strokeWidth=2;" parent="1" source="8W7GUWQGtb0MU_4nZzis-27" target="u1CNOt_KkvuoJOrz82CR-92" edge="1">
          <mxGeometry relative="1" as="geometry" />
        </mxCell>
        <mxCell id="u1CNOt_KkvuoJOrz82CR-277" style="edgeStyle=orthogonalEdgeStyle;rounded=0;orthogonalLoop=1;jettySize=auto;html=1;exitX=0.5;exitY=1;exitDx=0;exitDy=0;entryX=0.5;entryY=0;entryDx=0;entryDy=0;strokeColor=#B266FF;endSize=4;strokeWidth=2;" parent="1" source="8W7GUWQGtb0MU_4nZzis-27" target="u1CNOt_KkvuoJOrz82CR-12" edge="1">
          <mxGeometry relative="1" as="geometry">
            <Array as="points">
              <mxPoint x="2480" y="830" />
              <mxPoint x="2558" y="830" />
            </Array>
          </mxGeometry>
        </mxCell>
        <mxCell id="u1CNOt_KkvuoJOrz82CR-278" style="edgeStyle=orthogonalEdgeStyle;rounded=0;orthogonalLoop=1;jettySize=auto;html=1;exitX=0.75;exitY=1;exitDx=0;exitDy=0;entryX=0.25;entryY=0;entryDx=0;entryDy=0;strokeColor=#B266FF;endSize=4;strokeWidth=2;" parent="1" source="8W7GUWQGtb0MU_4nZzis-27" target="u1CNOt_KkvuoJOrz82CR-27" edge="1">
          <mxGeometry relative="1" as="geometry" />
        </mxCell>
        <mxCell id="8W7GUWQGtb0MU_4nZzis-27" value="FeedViewController" style="rounded=0;whiteSpace=wrap;html=1;fillColor=none;strokeColor=#B266FF;fontColor=#B266FF;fillOpacity=0;strokeWidth=2;" parent="1" vertex="1">
          <mxGeometry x="2418.75" y="748" width="123" height="30" as="geometry" />
        </mxCell>
        <mxCell id="8W7GUWQGtb0MU_4nZzis-28" value="UITableViewController" style="rounded=0;whiteSpace=wrap;html=1;fillColor=none;strokeColor=#66FF66;fontColor=#00FF00;fillOpacity=0;strokeWidth=2;" parent="1" vertex="1">
          <mxGeometry x="2354" y="856" width="138" height="30" as="geometry" />
        </mxCell>
        <mxCell id="8W7GUWQGtb0MU_4nZzis-59" style="edgeStyle=orthogonalEdgeStyle;shape=connector;rounded=0;orthogonalLoop=1;jettySize=auto;html=1;exitX=1;exitY=0.75;exitDx=0;exitDy=0;entryX=0;entryY=0.75;entryDx=0;entryDy=0;labelBackgroundColor=default;strokeColor=#FF3333;align=center;verticalAlign=middle;fontFamily=Helvetica;fontSize=11;fontColor=default;endArrow=classic;endSize=4;strokeWidth=2;" parent="1" source="8W7GUWQGtb0MU_4nZzis-29" target="8W7GUWQGtb0MU_4nZzis-58" edge="1">
          <mxGeometry relative="1" as="geometry" />
        </mxCell>
        <mxCell id="8W7GUWQGtb0MU_4nZzis-29" value="&amp;lt;FeedLoader&amp;gt;" style="rounded=0;whiteSpace=wrap;html=1;fillColor=#f5f5f5;strokeColor=#FF3333;fontColor=#FF3333;fillOpacity=0;strokeWidth=2;" parent="1" vertex="1">
          <mxGeometry x="2419" y="418.00000000000006" width="94" height="30" as="geometry" />
        </mxCell>
        <mxCell id="8W7GUWQGtb0MU_4nZzis-31" style="edgeStyle=orthogonalEdgeStyle;rounded=0;orthogonalLoop=1;jettySize=auto;html=1;entryX=1;entryY=0.5;entryDx=0;entryDy=0;strokeColor=#3399FF;endSize=4;strokeWidth=2;" parent="1" source="8W7GUWQGtb0MU_4nZzis-33" target="8W7GUWQGtb0MU_4nZzis-45" edge="1">
          <mxGeometry relative="1" as="geometry" />
        </mxCell>
        <mxCell id="ez4XXcgjV52YIP9xIQCq-15" style="edgeStyle=orthogonalEdgeStyle;rounded=0;orthogonalLoop=1;jettySize=auto;html=1;exitX=1;exitY=0.25;exitDx=0;exitDy=0;entryX=0;entryY=0.25;entryDx=0;entryDy=0;strokeColor=#3399FF;endSize=4;strokeWidth=2;" parent="1" source="8W7GUWQGtb0MU_4nZzis-33" target="8W7GUWQGtb0MU_4nZzis-58" edge="1">
          <mxGeometry relative="1" as="geometry">
            <Array as="points">
              <mxPoint x="2381" y="256" />
              <mxPoint x="2524" y="256" />
              <mxPoint x="2524" y="426" />
            </Array>
          </mxGeometry>
        </mxCell>
        <mxCell id="ez4XXcgjV52YIP9xIQCq-20" style="edgeStyle=orthogonalEdgeStyle;rounded=0;orthogonalLoop=1;jettySize=auto;html=1;exitX=1;exitY=0.5;exitDx=0;exitDy=0;entryX=0.25;entryY=0;entryDx=0;entryDy=0;endArrow=block;strokeColor=#3399FF;fontColor=#A8A8A8;endSize=4;dashed=1;endFill=0;fillColor=#f5f5f5;strokeWidth=2;" parent="1" source="8W7GUWQGtb0MU_4nZzis-33" target="8W7GUWQGtb0MU_4nZzis-29" edge="1">
          <mxGeometry relative="1" as="geometry" />
        </mxCell>
        <mxCell id="ez4XXcgjV52YIP9xIQCq-29" style="edgeStyle=orthogonalEdgeStyle;rounded=0;orthogonalLoop=1;jettySize=auto;html=1;exitX=0.25;exitY=1;exitDx=0;exitDy=0;entryX=1;entryY=0.5;entryDx=0;entryDy=0;strokeColor=#3399FF;endSize=4;strokeWidth=2;" parent="1" source="8W7GUWQGtb0MU_4nZzis-33" target="ez4XXcgjV52YIP9xIQCq-25" edge="1">
          <mxGeometry relative="1" as="geometry" />
        </mxCell>
        <mxCell id="ez4XXcgjV52YIP9xIQCq-30" style="edgeStyle=orthogonalEdgeStyle;rounded=0;orthogonalLoop=1;jettySize=auto;html=1;exitX=0.5;exitY=1;exitDx=0;exitDy=0;entryX=0.5;entryY=0;entryDx=0;entryDy=0;strokeColor=#3399FF;endSize=4;strokeWidth=2;" parent="1" source="8W7GUWQGtb0MU_4nZzis-33" target="8W7GUWQGtb0MU_4nZzis-46" edge="1">
          <mxGeometry relative="1" as="geometry" />
        </mxCell>
        <mxCell id="8W7GUWQGtb0MU_4nZzis-33" value="RemoteFeedLoader" style="rounded=0;whiteSpace=wrap;html=1;fillColor=#f5f5f5;strokeColor=#3399FF;fontColor=#3399FF;fillOpacity=0;strokeWidth=2;" parent="1" vertex="1">
          <mxGeometry x="2266" y="250.00000000000006" width="115" height="30" as="geometry" />
        </mxCell>
        <mxCell id="ez4XXcgjV52YIP9xIQCq-3" style="edgeStyle=orthogonalEdgeStyle;rounded=0;orthogonalLoop=1;jettySize=auto;html=1;exitX=0.5;exitY=1;exitDx=0;exitDy=0;entryX=0.5;entryY=0;entryDx=0;entryDy=0;fontSize=12;strokeColor=#FF0080;fontColor=#FF0080;endSize=4;endFill=1;fillColor=#f5f5f5;strokeWidth=2;" parent="1" source="8W7GUWQGtb0MU_4nZzis-36" target="8W7GUWQGtb0MU_4nZzis-58" edge="1">
          <mxGeometry relative="1" as="geometry" />
        </mxCell>
        <mxCell id="ez4XXcgjV52YIP9xIQCq-34" style="edgeStyle=orthogonalEdgeStyle;rounded=0;orthogonalLoop=1;jettySize=auto;html=1;exitX=0;exitY=0.75;exitDx=0;exitDy=0;entryX=0.75;entryY=0;entryDx=0;entryDy=0;endArrow=block;strokeColor=#FF0080;fontColor=#FF0080;endSize=4;dashed=1;endFill=0;fillColor=#f5f5f5;strokeWidth=2;" parent="1" source="8W7GUWQGtb0MU_4nZzis-36" target="8W7GUWQGtb0MU_4nZzis-29" edge="1">
          <mxGeometry relative="1" as="geometry" />
        </mxCell>
        <mxCell id="ez4XXcgjV52YIP9xIQCq-38" style="edgeStyle=orthogonalEdgeStyle;rounded=0;orthogonalLoop=1;jettySize=auto;html=1;entryX=0;entryY=0.5;entryDx=0;entryDy=0;fontSize=12;strokeColor=#FF0080;fontColor=#FF0080;endSize=4;endFill=1;fillColor=#f5f5f5;strokeWidth=2;" parent="1" source="8W7GUWQGtb0MU_4nZzis-36" target="ez4XXcgjV52YIP9xIQCq-17" edge="1">
          <mxGeometry relative="1" as="geometry">
            <Array as="points">
              <mxPoint x="2682" y="307" />
              <mxPoint x="2682" y="253" />
            </Array>
          </mxGeometry>
        </mxCell>
        <mxCell id="ez4XXcgjV52YIP9xIQCq-40" style="edgeStyle=orthogonalEdgeStyle;rounded=0;orthogonalLoop=1;jettySize=auto;html=1;exitX=1;exitY=0.75;exitDx=0;exitDy=0;entryX=0;entryY=0.75;entryDx=0;entryDy=0;fontSize=12;strokeColor=#FF0080;fontColor=#FF0080;endSize=4;endFill=1;fillColor=#f5f5f5;strokeWidth=2;" parent="1" source="8W7GUWQGtb0MU_4nZzis-36" target="8W7GUWQGtb0MU_4nZzis-53" edge="1">
          <mxGeometry relative="1" as="geometry" />
        </mxCell>
        <mxCell id="ez4XXcgjV52YIP9xIQCq-42" style="edgeStyle=orthogonalEdgeStyle;rounded=0;orthogonalLoop=1;jettySize=auto;html=1;exitX=0.5;exitY=0;exitDx=0;exitDy=0;entryX=0.5;entryY=1;entryDx=0;entryDy=0;fontSize=12;strokeColor=#FF0080;fontColor=#FF0080;endSize=4;endFill=1;fillColor=#f5f5f5;strokeWidth=2;" parent="1" source="8W7GUWQGtb0MU_4nZzis-36" target="ez4XXcgjV52YIP9xIQCq-37" edge="1">
          <mxGeometry relative="1" as="geometry" />
        </mxCell>
        <mxCell id="8W7GUWQGtb0MU_4nZzis-36" value="LocalFeedLoader" style="rounded=0;whiteSpace=wrap;html=1;fillColor=#f5f5f5;strokeColor=#FF0080;fontColor=#FF0080;fillOpacity=0;movable=1;resizable=1;rotatable=1;deletable=1;editable=1;locked=0;connectable=1;strokeWidth=2;" parent="1" vertex="1">
          <mxGeometry x="2556.5" y="292.00000000000006" width="105" height="30" as="geometry" />
        </mxCell>
        <mxCell id="8W7GUWQGtb0MU_4nZzis-78" style="edgeStyle=orthogonalEdgeStyle;shape=connector;rounded=0;orthogonalLoop=1;jettySize=auto;html=1;entryX=0;entryY=0.25;entryDx=0;entryDy=0;labelBackgroundColor=default;strokeColor=#A8A8A8;align=center;verticalAlign=middle;fontFamily=Helvetica;fontSize=11;fontColor=#A8A8A8;endArrow=classic;endSize=4;endFill=1;fillColor=#f5f5f5;exitX=0.809;exitY=1.01;exitDx=0;exitDy=0;exitPerimeter=0;strokeWidth=2;" parent="1" source="8W7GUWQGtb0MU_4nZzis-40" target="8W7GUWQGtb0MU_4nZzis-36" edge="1">
          <mxGeometry relative="1" as="geometry">
            <mxPoint x="2533" y="156" as="sourcePoint" />
            <Array as="points">
              <mxPoint x="2534" y="300" />
            </Array>
          </mxGeometry>
        </mxCell>
        <mxCell id="ez4XXcgjV52YIP9xIQCq-4" style="edgeStyle=orthogonalEdgeStyle;rounded=0;orthogonalLoop=1;jettySize=auto;html=1;exitX=0.5;exitY=1;exitDx=0;exitDy=0;entryX=0.5;entryY=0;entryDx=0;entryDy=0;endArrow=block;strokeColor=#A8A8A8;fontColor=#A8A8A8;endSize=4;dashed=1;endFill=0;fillColor=#f5f5f5;strokeWidth=2;" parent="1" source="8W7GUWQGtb0MU_4nZzis-40" target="8W7GUWQGtb0MU_4nZzis-29" edge="1">
          <mxGeometry relative="1" as="geometry" />
        </mxCell>
        <mxCell id="ez4XXcgjV52YIP9xIQCq-31" style="edgeStyle=orthogonalEdgeStyle;rounded=0;orthogonalLoop=1;jettySize=auto;html=1;exitX=0.25;exitY=1;exitDx=0;exitDy=0;entryX=0.75;entryY=0;entryDx=0;entryDy=0;strokeColor=#A8A8A8;fontColor=#A8A8A8;endSize=4;endFill=1;fillColor=#f5f5f5;strokeWidth=2;" parent="1" source="8W7GUWQGtb0MU_4nZzis-40" target="8W7GUWQGtb0MU_4nZzis-33" edge="1">
          <mxGeometry relative="1" as="geometry" />
        </mxCell>
        <mxCell id="8W7GUWQGtb0MU_4nZzis-40" value="RemoteWithLocalFallbackFeedLoader" style="rounded=0;whiteSpace=wrap;html=1;fillColor=#f5f5f5;strokeColor=#A8A8A8;fontColor=#A8A8A8;fillOpacity=0;strokeWidth=2;" parent="1" vertex="1">
          <mxGeometry x="2356.5" y="125.00000000000006" width="219" height="30" as="geometry" />
        </mxCell>
        <mxCell id="8W7GUWQGtb0MU_4nZzis-41" style="edgeStyle=orthogonalEdgeStyle;shape=connector;rounded=0;orthogonalLoop=1;jettySize=auto;html=1;exitX=0;exitY=0.5;exitDx=0;exitDy=0;entryX=1;entryY=0.5;entryDx=0;entryDy=0;labelBackgroundColor=default;fontFamily=Helvetica;fontSize=11;fontColor=#A8A8A8;endArrow=classic;endFill=1;dashed=1;fillColor=#f5f5f5;strokeColor=#A8A8A8;fillOpacity=100;endSize=4;strokeWidth=2;" parent="1" source="8W7GUWQGtb0MU_4nZzis-44" target="8W7GUWQGtb0MU_4nZzis-40" edge="1">
          <mxGeometry relative="1" as="geometry" />
        </mxCell>
        <mxCell id="8W7GUWQGtb0MU_4nZzis-43" style="edgeStyle=orthogonalEdgeStyle;shape=connector;rounded=0;orthogonalLoop=1;jettySize=auto;html=1;exitX=0.5;exitY=0;exitDx=0;exitDy=0;dashed=1;labelBackgroundColor=default;fontFamily=Helvetica;fontSize=11;fontColor=#A8A8A8;endArrow=classic;endFill=1;fillColor=#f5f5f5;strokeColor=#A8A8A8;fillOpacity=100;endSize=4;strokeWidth=2;" parent="1" source="8W7GUWQGtb0MU_4nZzis-44" target="8W7GUWQGtb0MU_4nZzis-33" edge="1">
          <mxGeometry relative="1" as="geometry">
            <Array as="points">
              <mxPoint x="2739" y="90" />
              <mxPoint x="2270" y="90" />
              <mxPoint x="2270" y="188" />
              <mxPoint x="2310" y="188" />
            </Array>
          </mxGeometry>
        </mxCell>
        <mxCell id="ez4XXcgjV52YIP9xIQCq-41" style="edgeStyle=orthogonalEdgeStyle;rounded=0;orthogonalLoop=1;jettySize=auto;html=1;exitX=0.048;exitY=0.998;exitDx=0;exitDy=0;entryX=1;entryY=0.25;entryDx=0;entryDy=0;exitPerimeter=0;strokeColor=#A8A8A8;fontColor=#A8A8A8;endSize=4;endFill=1;fillColor=#f5f5f5;dashed=1;strokeWidth=2;" parent="1" source="8W7GUWQGtb0MU_4nZzis-44" target="8W7GUWQGtb0MU_4nZzis-36" edge="1">
          <mxGeometry relative="1" as="geometry">
            <Array as="points">
              <mxPoint x="2675" y="300" />
            </Array>
          </mxGeometry>
        </mxCell>
        <mxCell id="8W7GUWQGtb0MU_4nZzis-44" value="Feed&lt;br&gt;Assembler/Builder/Factory" style="rounded=0;whiteSpace=wrap;html=1;fillColor=#f5f5f5;strokeColor=#A8A8A8;fontColor=#A8A8A8;fillOpacity=0;strokeWidth=2;" parent="1" vertex="1">
          <mxGeometry x="2667" y="110.00000000000006" width="171" height="60" as="geometry" />
        </mxCell>
        <mxCell id="ez4XXcgjV52YIP9xIQCq-26" style="edgeStyle=orthogonalEdgeStyle;rounded=0;orthogonalLoop=1;jettySize=auto;html=1;exitX=0.5;exitY=1;exitDx=0;exitDy=0;entryX=0.5;entryY=0;entryDx=0;entryDy=0;strokeColor=#3399FF;endSize=4;strokeWidth=2;" parent="1" source="8W7GUWQGtb0MU_4nZzis-45" target="ez4XXcgjV52YIP9xIQCq-25" edge="1">
          <mxGeometry relative="1" as="geometry" />
        </mxCell>
        <mxCell id="8W7GUWQGtb0MU_4nZzis-45" value="FeedItemsMapper" style="rounded=0;whiteSpace=wrap;html=1;fillColor=#f5f5f5;strokeColor=#3399FF;fontColor=#3399FF;fillOpacity=0;strokeWidth=2;" parent="1" vertex="1">
          <mxGeometry x="2120" y="250.00000000000006" width="115" height="30" as="geometry" />
        </mxCell>
        <mxCell id="8W7GUWQGtb0MU_4nZzis-46" value="HTTPClient" style="rounded=0;whiteSpace=wrap;html=1;fillColor=#f5f5f5;strokeColor=#3399FF;fontColor=#3399FF;fillOpacity=0;strokeWidth=2;" parent="1" vertex="1">
          <mxGeometry x="2266" y="360.75000000000006" width="115" height="30" as="geometry" />
        </mxCell>
        <mxCell id="8W7GUWQGtb0MU_4nZzis-48" style="edgeStyle=orthogonalEdgeStyle;shape=connector;rounded=0;orthogonalLoop=1;jettySize=auto;html=1;labelBackgroundColor=default;strokeColor=#3399FF;align=center;verticalAlign=middle;fontFamily=Helvetica;fontSize=12;fontColor=#3399FF;endArrow=classic;endSize=4;endFill=1;fillColor=#f5f5f5;strokeWidth=2;" parent="1" source="8W7GUWQGtb0MU_4nZzis-49" edge="1">
          <mxGeometry relative="1" as="geometry">
            <mxPoint x="2177" y="424" as="targetPoint" />
          </mxGeometry>
        </mxCell>
        <mxCell id="ez4XXcgjV52YIP9xIQCq-23" style="edgeStyle=orthogonalEdgeStyle;rounded=0;orthogonalLoop=1;jettySize=auto;html=1;exitX=1;exitY=0.5;exitDx=0;exitDy=0;entryX=0;entryY=0.5;entryDx=0;entryDy=0;endArrow=block;fontSize=12;strokeColor=#3399FF;fontColor=#3399FF;endSize=4;dashed=1;endFill=0;fillColor=#f5f5f5;strokeWidth=2;" parent="1" source="8W7GUWQGtb0MU_4nZzis-49" target="8W7GUWQGtb0MU_4nZzis-46" edge="1">
          <mxGeometry relative="1" as="geometry" />
        </mxCell>
        <mxCell id="8W7GUWQGtb0MU_4nZzis-49" value="URLSessionHTTPClient" style="rounded=0;whiteSpace=wrap;html=1;fillColor=#f5f5f5;strokeColor=#3399FF;fontColor=#3399FF;fillOpacity=0;strokeWidth=2;" parent="1" vertex="1">
          <mxGeometry x="2108.75" y="360.75000000000006" width="137.5" height="30" as="geometry" />
        </mxCell>
        <mxCell id="8W7GUWQGtb0MU_4nZzis-51" value="Feed API module" style="text;html=1;align=center;verticalAlign=middle;resizable=0;points=[];autosize=1;strokeColor=none;fillColor=none;fontSize=12;fontFamily=Helvetica;fontColor=#3399FF;strokeWidth=2;" parent="1" vertex="1">
          <mxGeometry x="2093" y="211.00000000000006" width="120" height="30" as="geometry" />
        </mxCell>
        <mxCell id="ez4XXcgjV52YIP9xIQCq-19" style="edgeStyle=orthogonalEdgeStyle;rounded=0;orthogonalLoop=1;jettySize=auto;html=1;exitX=0.5;exitY=0;exitDx=0;exitDy=0;entryX=0.5;entryY=1;entryDx=0;entryDy=0;fontSize=12;strokeColor=#FF0080;fontColor=#FF0080;endSize=4;endFill=1;fillColor=#f5f5f5;strokeWidth=2;" parent="1" source="8W7GUWQGtb0MU_4nZzis-53" target="ez4XXcgjV52YIP9xIQCq-17" edge="1">
          <mxGeometry relative="1" as="geometry" />
        </mxCell>
        <mxCell id="8W7GUWQGtb0MU_4nZzis-53" value="&amp;lt;FeedStore&amp;gt;" style="rounded=0;whiteSpace=wrap;html=1;fillColor=#f5f5f5;strokeColor=#FF0080;fontColor=#FF0080;fillOpacity=0;movable=1;resizable=1;rotatable=1;deletable=1;editable=1;locked=0;connectable=1;strokeWidth=2;" parent="1" vertex="1">
          <mxGeometry x="2700" y="292.00000000000006" width="105" height="30" as="geometry" />
        </mxCell>
        <mxCell id="8W7GUWQGtb0MU_4nZzis-54" value="Feed Cache module" style="text;html=1;align=center;verticalAlign=middle;resizable=0;points=[];autosize=1;strokeColor=none;fillColor=none;fontSize=12;fontFamily=Helvetica;fontColor=#FF0080;strokeWidth=2;" parent="1" vertex="1">
          <mxGeometry x="2731" y="196.00000000000006" width="130" height="30" as="geometry" />
        </mxCell>
        <mxCell id="8W7GUWQGtb0MU_4nZzis-58" value="FeedImage" style="rounded=0;whiteSpace=wrap;html=1;fillColor=#f5f5f5;strokeColor=#FF3333;fontColor=#FF3333;fillOpacity=0;strokeWidth=2;" parent="1" vertex="1">
          <mxGeometry x="2564" y="418.00000000000006" width="94" height="30" as="geometry" />
        </mxCell>
        <mxCell id="8W7GUWQGtb0MU_4nZzis-82" value="Feed Feature module" style="text;html=1;align=center;verticalAlign=middle;resizable=0;points=[];autosize=1;strokeColor=none;fillColor=none;fontSize=12;fontFamily=Helvetica;fontColor=#FF3333;strokeWidth=2;" parent="1" vertex="1">
          <mxGeometry x="2390.5" y="469.00000000000006" width="140" height="30" as="geometry" />
        </mxCell>
        <mxCell id="ez4XXcgjV52YIP9xIQCq-11" value="" style="group;strokeWidth=2;" parent="1" vertex="1" connectable="0">
          <mxGeometry x="2134.67" y="426.00000000000006" width="78.32999999999993" height="50" as="geometry" />
        </mxCell>
        <mxCell id="8W7GUWQGtb0MU_4nZzis-50" value="" style="html=1;verticalLabelPosition=bottom;align=center;labelBackgroundColor=#ffffff;verticalAlign=top;strokeWidth=2;strokeColor=#3399FF;shadow=0;dashed=0;shape=mxgraph.ios7.icons.cloud;fontFamily=Helvetica;fontSize=11;fontColor=default;fillColor=#3399FF;" parent="ez4XXcgjV52YIP9xIQCq-11" vertex="1">
          <mxGeometry width="78.33" height="47" as="geometry" />
        </mxCell>
        <mxCell id="8W7GUWQGtb0MU_4nZzis-55" value="Feed&lt;br&gt;Backend" style="text;html=1;align=center;verticalAlign=middle;resizable=0;points=[];autosize=1;strokeColor=none;fillColor=none;fontSize=12;fontFamily=Helvetica;fontColor=#FFFFFF;strokeWidth=2;" parent="ez4XXcgjV52YIP9xIQCq-11" vertex="1">
          <mxGeometry x="6.329999999999927" y="10" width="70" height="40" as="geometry" />
        </mxCell>
        <mxCell id="ez4XXcgjV52YIP9xIQCq-17" value="LocalFeedImage" style="rounded=0;whiteSpace=wrap;html=1;fillColor=#f5f5f5;strokeColor=#FF0080;fontColor=#FF0080;fillOpacity=0;movable=1;resizable=1;rotatable=1;deletable=1;editable=1;locked=0;connectable=1;strokeWidth=2;" parent="1" vertex="1">
          <mxGeometry x="2698" y="238.50000000000006" width="105" height="30" as="geometry" />
        </mxCell>
        <mxCell id="ez4XXcgjV52YIP9xIQCq-25" value="RemoteFeedItem" style="rounded=0;whiteSpace=wrap;html=1;fillColor=#f5f5f5;strokeColor=#3399FF;fontColor=#3399FF;fillOpacity=0;strokeWidth=2;" parent="1" vertex="1">
          <mxGeometry x="2120" y="303.00000000000006" width="115" height="30" as="geometry" />
        </mxCell>
        <mxCell id="ez4XXcgjV52YIP9xIQCq-27" value="internal" style="text;html=1;strokeColor=none;fillColor=none;align=center;verticalAlign=middle;whiteSpace=wrap;rounded=0;fontSize=6;fontColor=#3399FF;strokeWidth=2;" parent="1" vertex="1">
          <mxGeometry x="2210" y="248.5" width="25" height="10" as="geometry" />
        </mxCell>
        <mxCell id="ez4XXcgjV52YIP9xIQCq-28" value="internal" style="text;html=1;strokeColor=none;fillColor=none;align=center;verticalAlign=middle;whiteSpace=wrap;rounded=0;fontSize=6;fontColor=#3399FF;strokeWidth=2;" parent="1" vertex="1">
          <mxGeometry x="2210" y="303" width="25" height="10" as="geometry" />
        </mxCell>
        <mxCell id="ez4XXcgjV52YIP9xIQCq-37" value="FeedCachePolicy" style="rounded=0;whiteSpace=wrap;html=1;fillColor=#f5f5f5;strokeColor=#FF0080;fontColor=#FF0080;fillOpacity=0;movable=1;resizable=1;rotatable=1;deletable=1;editable=1;locked=0;connectable=1;strokeWidth=2;" parent="1" vertex="1">
          <mxGeometry x="2556.5" y="238.50000000000006" width="105" height="30" as="geometry" />
        </mxCell>
        <mxCell id="ez4XXcgjV52YIP9xIQCq-43" value="internal" style="text;html=1;strokeColor=none;fillColor=none;align=center;verticalAlign=middle;whiteSpace=wrap;rounded=0;fontSize=6;fontColor=#FF0080;strokeWidth=2;" parent="1" vertex="1">
          <mxGeometry x="2636.5" y="237.5" width="25" height="10" as="geometry" />
        </mxCell>
        <mxCell id="KoYpoCRYb6R5UgXLnNiR-5" style="edgeStyle=orthogonalEdgeStyle;rounded=0;orthogonalLoop=1;jettySize=auto;html=1;exitX=1;exitY=0.5;exitDx=0;exitDy=0;entryX=1;entryY=0.75;entryDx=0;entryDy=0;fontSize=12;strokeColor=#FF0080;fontColor=#FF0080;endSize=4;endFill=1;fillColor=#f5f5f5;strokeWidth=2;" parent="1" source="KoYpoCRYb6R5UgXLnNiR-2" target="ez4XXcgjV52YIP9xIQCq-17" edge="1">
          <mxGeometry relative="1" as="geometry" />
        </mxCell>
        <mxCell id="KoYpoCRYb6R5UgXLnNiR-23" style="edgeStyle=orthogonalEdgeStyle;rounded=0;orthogonalLoop=1;jettySize=auto;html=1;exitX=0.5;exitY=0;exitDx=0;exitDy=0;entryX=0.5;entryY=1;entryDx=0;entryDy=0;endArrow=block;strokeColor=#FF0080;fontColor=#FF0080;endSize=4;dashed=1;endFill=0;fillColor=#f5f5f5;strokeWidth=2;" parent="1" source="KoYpoCRYb6R5UgXLnNiR-2" target="8W7GUWQGtb0MU_4nZzis-53" edge="1">
          <mxGeometry relative="1" as="geometry" />
        </mxCell>
        <mxCell id="u1CNOt_KkvuoJOrz82CR-1" style="edgeStyle=orthogonalEdgeStyle;rounded=0;orthogonalLoop=1;jettySize=auto;html=1;exitX=0.5;exitY=1;exitDx=0;exitDy=0;fontSize=12;strokeColor=#FF0080;fontColor=#FF0080;endSize=4;endFill=1;fillColor=#f5f5f5;strokeWidth=2;" parent="1" source="KoYpoCRYb6R5UgXLnNiR-2" target="spk-M44NhIvVEb8tpxO8-1" edge="1">
          <mxGeometry relative="1" as="geometry" />
        </mxCell>
        <mxCell id="KoYpoCRYb6R5UgXLnNiR-2" value="CoreDataFeedStore" style="rounded=0;whiteSpace=wrap;html=1;fillColor=#f5f5f5;strokeColor=#FF0080;fontColor=#FF0080;fillOpacity=0;movable=1;resizable=1;rotatable=1;deletable=1;editable=1;locked=0;connectable=1;strokeWidth=2;" parent="1" vertex="1">
          <mxGeometry x="2694" y="344" width="117" height="30" as="geometry" />
        </mxCell>
        <mxCell id="spk-M44NhIvVEb8tpxO8-1" value="Core&lt;br&gt;Data" style="shape=cylinder3;whiteSpace=wrap;html=1;boundedLbl=1;backgroundOutline=1;size=8.122448979591752;fillColor=#FF0080;strokeColor=#C3ABD0;strokeWidth=0.5;gradientColor=#99004D;fontColor=#FFFFFF;" parent="1" vertex="1">
          <mxGeometry x="2728" y="408.5" width="49" height="49" as="geometry" />
        </mxCell>
        <mxCell id="u1CNOt_KkvuoJOrz82CR-4" value="Feed iOS UI module" style="text;html=1;align=center;verticalAlign=middle;resizable=0;points=[];autosize=1;strokeColor=none;fillColor=none;fontSize=12;fontFamily=Helvetica;fontColor=#B266FF;strokeWidth=2;labelBackgroundColor=default;" parent="1" vertex="1">
          <mxGeometry x="2777" y="648" width="127" height="26" as="geometry" />
        </mxCell>
        <mxCell id="u1CNOt_KkvuoJOrz82CR-11" value="UIKit" style="text;html=1;align=center;verticalAlign=middle;resizable=0;points=[];autosize=1;strokeColor=none;fillColor=none;fontSize=12;fontFamily=Helvetica;fontColor=#00FF00;strokeWidth=2;labelBackgroundColor=default;" parent="1" vertex="1">
          <mxGeometry x="2193" y="808" width="44" height="26" as="geometry" />
        </mxCell>
        <mxCell id="u1CNOt_KkvuoJOrz82CR-12" value="UITableView" style="rounded=0;whiteSpace=wrap;html=1;fillColor=none;strokeColor=#66FF66;fontColor=#00FF00;fillOpacity=0;strokeWidth=2;" parent="1" vertex="1">
          <mxGeometry x="2513" y="856" width="91" height="30" as="geometry" />
        </mxCell>
        <mxCell id="u1CNOt_KkvuoJOrz82CR-17" value="UIRefreshControl" style="rounded=0;whiteSpace=wrap;html=1;fillColor=none;strokeColor=#66FF66;fontColor=#00FF00;fillOpacity=0;strokeWidth=2;" parent="1" vertex="1">
          <mxGeometry x="2214.26" y="856" width="121.5" height="30" as="geometry" />
        </mxCell>
        <mxCell id="u1CNOt_KkvuoJOrz82CR-19" value="&amp;lt;FeedImageDataLoaderTask&amp;gt;" style="rounded=0;whiteSpace=wrap;html=1;fillColor=none;strokeColor=#009999;fontColor=#009999;fillOpacity=0;strokeWidth=2;" parent="1" vertex="1">
          <mxGeometry x="2680" y="573" width="192" height="30" as="geometry" />
        </mxCell>
        <mxCell id="u1CNOt_KkvuoJOrz82CR-20" value="&amp;lt;FeedImageDataLoader&amp;gt;" style="rounded=0;whiteSpace=wrap;html=1;fillColor=none;strokeColor=#009999;fontColor=#009999;fillOpacity=0;strokeWidth=2;" parent="1" vertex="1">
          <mxGeometry x="2680" y="527" width="192" height="30" as="geometry" />
        </mxCell>
        <mxCell id="u1CNOt_KkvuoJOrz82CR-250" style="edgeStyle=orthogonalEdgeStyle;rounded=0;orthogonalLoop=1;jettySize=auto;html=1;exitX=0.5;exitY=1;exitDx=0;exitDy=0;entryX=0.5;entryY=0;entryDx=0;entryDy=0;endArrow=block;strokeColor=#B266FF;endSize=6;strokeWidth=2;endFill=0;" parent="1" source="u1CNOt_KkvuoJOrz82CR-21" target="u1CNOt_KkvuoJOrz82CR-27" edge="1">
          <mxGeometry relative="1" as="geometry" />
        </mxCell>
        <mxCell id="u1CNOt_KkvuoJOrz82CR-21" value="FeedImageCell" style="rounded=0;whiteSpace=wrap;html=1;fillColor=none;strokeColor=#B266FF;fontColor=#B266FF;fillOpacity=0;strokeWidth=2;" parent="1" vertex="1">
          <mxGeometry x="2619" y="748" width="122" height="30" as="geometry" />
        </mxCell>
        <mxCell id="u1CNOt_KkvuoJOrz82CR-27" value="UITableViewCell" style="rounded=0;whiteSpace=wrap;html=1;fillColor=none;strokeColor=#66FF66;fontColor=#00FF00;fillOpacity=0;strokeWidth=2;" parent="1" vertex="1">
          <mxGeometry x="2624.5" y="856" width="111" height="30" as="geometry" />
        </mxCell>
        <mxCell id="u1CNOt_KkvuoJOrz82CR-37" style="edgeStyle=orthogonalEdgeStyle;rounded=0;orthogonalLoop=1;jettySize=auto;html=1;exitX=1;exitY=0.75;exitDx=0;exitDy=0;entryX=0;entryY=0.75;entryDx=0;entryDy=0;strokeColor=#B266FF;endSize=4;strokeWidth=2;" parent="1" source="u1CNOt_KkvuoJOrz82CR-34" target="u1CNOt_KkvuoJOrz82CR-35" edge="1">
          <mxGeometry relative="1" as="geometry" />
        </mxCell>
        <mxCell id="u1CNOt_KkvuoJOrz82CR-38" style="edgeStyle=orthogonalEdgeStyle;rounded=0;orthogonalLoop=1;jettySize=auto;html=1;exitX=0;exitY=0.75;exitDx=0;exitDy=0;entryX=1;entryY=0.75;entryDx=0;entryDy=0;strokeColor=#B266FF;endSize=4;strokeWidth=2;" parent="1" source="u1CNOt_KkvuoJOrz82CR-34" target="u1CNOt_KkvuoJOrz82CR-36" edge="1">
          <mxGeometry relative="1" as="geometry" />
        </mxCell>
        <mxCell id="u1CNOt_KkvuoJOrz82CR-34" value="FeedRefreshViewController" style="rounded=0;whiteSpace=wrap;html=1;fillColor=none;strokeColor=#B266FF;fontColor=#B266FF;fillOpacity=0;strokeWidth=2;flipH=1;" parent="1" vertex="1">
          <mxGeometry x="3890" y="220" width="179" height="30" as="geometry" />
        </mxCell>
        <mxCell id="u1CNOt_KkvuoJOrz82CR-39" style="edgeStyle=orthogonalEdgeStyle;rounded=0;orthogonalLoop=1;jettySize=auto;html=1;exitX=0;exitY=0.25;exitDx=0;exitDy=0;entryX=1;entryY=0.25;entryDx=0;entryDy=0;strokeColor=#00FF00;fontColor=#A8A8A8;dashed=1;endFill=1;fillColor=#f5f5f5;endSize=4;strokeWidth=2;" parent="1" source="u1CNOt_KkvuoJOrz82CR-35" target="u1CNOt_KkvuoJOrz82CR-34" edge="1">
          <mxGeometry relative="1" as="geometry" />
        </mxCell>
        <mxCell id="u1CNOt_KkvuoJOrz82CR-35" value="UIRefreshControl" style="rounded=0;whiteSpace=wrap;html=1;fillColor=none;strokeColor=#66FF66;fontColor=#00FF00;fillOpacity=0;strokeWidth=2;flipH=1;" parent="1" vertex="1">
          <mxGeometry x="4169.5" y="220" width="138" height="30" as="geometry" />
        </mxCell>
        <mxCell id="u1CNOt_KkvuoJOrz82CR-40" style="edgeStyle=orthogonalEdgeStyle;rounded=0;orthogonalLoop=1;jettySize=auto;html=1;exitX=1;exitY=0.25;exitDx=0;exitDy=0;entryX=0;entryY=0.25;entryDx=0;entryDy=0;strokeColor=#FF3333;fontColor=#A8A8A8;dashed=1;endFill=1;fillColor=#f5f5f5;endSize=4;strokeWidth=2;" parent="1" source="u1CNOt_KkvuoJOrz82CR-36" target="u1CNOt_KkvuoJOrz82CR-34" edge="1">
          <mxGeometry relative="1" as="geometry" />
        </mxCell>
        <mxCell id="u1CNOt_KkvuoJOrz82CR-36" value="&amp;lt;FeedLoader&amp;gt;" style="rounded=0;whiteSpace=wrap;html=1;fillColor=#f5f5f5;strokeColor=#FF3333;fontColor=#FF3333;fillOpacity=0;strokeWidth=2;flipH=1;" parent="1" vertex="1">
          <mxGeometry x="3691" y="220" width="94" height="30" as="geometry" />
        </mxCell>
        <mxCell id="u1CNOt_KkvuoJOrz82CR-41" value="completion&lt;br style=&quot;font-size: 8px;&quot;&gt;callback" style="text;html=1;strokeColor=none;fillColor=none;align=center;verticalAlign=middle;whiteSpace=wrap;rounded=0;fontSize=8;fontColor=#FF3333;" parent="1" vertex="1">
          <mxGeometry x="3807" y="199" width="60" height="30" as="geometry" />
        </mxCell>
        <mxCell id="u1CNOt_KkvuoJOrz82CR-42" value="State&lt;br&gt;isLoading: Bool" style="text;html=1;strokeColor=none;fillColor=none;align=center;verticalAlign=middle;whiteSpace=wrap;rounded=0;fontSize=8;fontColor=#FF3333;" parent="1" vertex="1">
          <mxGeometry x="3705" y="189" width="60" height="30" as="geometry" />
        </mxCell>
        <mxCell id="u1CNOt_KkvuoJOrz82CR-43" value="target/action" style="text;html=1;strokeColor=none;fillColor=none;align=center;verticalAlign=middle;whiteSpace=wrap;rounded=0;fontSize=8;fontColor=#00FF00;" parent="1" vertex="1">
          <mxGeometry x="4089" y="203" width="60" height="30" as="geometry" />
        </mxCell>
        <mxCell id="u1CNOt_KkvuoJOrz82CR-44" value="updates" style="text;html=1;strokeColor=none;fillColor=none;align=center;verticalAlign=middle;whiteSpace=wrap;rounded=0;fontSize=8;fontColor=#B266FF;" parent="1" vertex="1">
          <mxGeometry x="4089" y="236" width="60" height="30" as="geometry" />
        </mxCell>
        <mxCell id="u1CNOt_KkvuoJOrz82CR-45" value="manages" style="text;html=1;strokeColor=none;fillColor=none;align=center;verticalAlign=middle;whiteSpace=wrap;rounded=0;fontSize=8;fontColor=#B266FF;" parent="1" vertex="1">
          <mxGeometry x="3807" y="236" width="60" height="30" as="geometry" />
        </mxCell>
        <mxCell id="u1CNOt_KkvuoJOrz82CR-46" value="Model" style="text;html=1;strokeColor=none;fillColor=none;align=center;verticalAlign=middle;whiteSpace=wrap;rounded=0;fontSize=12;fontColor=#FF3333;" parent="1" vertex="1">
          <mxGeometry x="3705" y="144" width="60" height="30" as="geometry" />
        </mxCell>
        <mxCell id="u1CNOt_KkvuoJOrz82CR-47" value="Controller" style="text;html=1;strokeColor=none;fillColor=none;align=center;verticalAlign=middle;whiteSpace=wrap;rounded=0;fontSize=12;fontColor=#B266FF;" parent="1" vertex="1">
          <mxGeometry x="3952.5" y="144" width="60" height="30" as="geometry" />
        </mxCell>
        <mxCell id="u1CNOt_KkvuoJOrz82CR-48" value="View" style="text;html=1;strokeColor=none;fillColor=none;align=center;verticalAlign=middle;whiteSpace=wrap;rounded=0;fontSize=12;fontColor=#00FF00;" parent="1" vertex="1">
          <mxGeometry x="4169.5" y="144" width="60" height="30" as="geometry" />
        </mxCell>
        <mxCell id="u1CNOt_KkvuoJOrz82CR-49" style="edgeStyle=orthogonalEdgeStyle;rounded=0;orthogonalLoop=1;jettySize=auto;html=1;exitX=1;exitY=0.75;exitDx=0;exitDy=0;entryX=0;entryY=0.75;entryDx=0;entryDy=0;strokeColor=#B266FF;endSize=4;strokeWidth=2;" parent="1" source="u1CNOt_KkvuoJOrz82CR-51" target="u1CNOt_KkvuoJOrz82CR-53" edge="1">
          <mxGeometry relative="1" as="geometry" />
        </mxCell>
        <mxCell id="u1CNOt_KkvuoJOrz82CR-125" style="edgeStyle=orthogonalEdgeStyle;rounded=0;orthogonalLoop=1;jettySize=auto;html=1;exitX=0.5;exitY=0;exitDx=0;exitDy=0;entryX=0.5;entryY=1;entryDx=0;entryDy=0;strokeColor=#B266FF;endSize=4;strokeWidth=2;" parent="1" source="u1CNOt_KkvuoJOrz82CR-51" target="u1CNOt_KkvuoJOrz82CR-34" edge="1">
          <mxGeometry relative="1" as="geometry" />
        </mxCell>
        <mxCell id="u1CNOt_KkvuoJOrz82CR-126" style="edgeStyle=orthogonalEdgeStyle;rounded=0;orthogonalLoop=1;jettySize=auto;html=1;exitX=0.5;exitY=1;exitDx=0;exitDy=0;entryX=0.5;entryY=0;entryDx=0;entryDy=0;strokeColor=#B266FF;endSize=4;strokeWidth=2;" parent="1" source="u1CNOt_KkvuoJOrz82CR-51" target="u1CNOt_KkvuoJOrz82CR-63" edge="1">
          <mxGeometry relative="1" as="geometry" />
        </mxCell>
        <mxCell id="u1CNOt_KkvuoJOrz82CR-51" value="FeedViewController" style="rounded=0;whiteSpace=wrap;html=1;fillColor=none;strokeColor=#B266FF;fontColor=#B266FF;fillOpacity=0;strokeWidth=2;flipH=1;" parent="1" vertex="1">
          <mxGeometry x="3918" y="324" width="123" height="30" as="geometry" />
        </mxCell>
        <mxCell id="u1CNOt_KkvuoJOrz82CR-52" style="edgeStyle=orthogonalEdgeStyle;rounded=0;orthogonalLoop=1;jettySize=auto;html=1;exitX=0;exitY=0.25;exitDx=0;exitDy=0;entryX=1;entryY=0.25;entryDx=0;entryDy=0;strokeColor=#00FF00;fontColor=#A8A8A8;dashed=1;endFill=1;fillColor=#f5f5f5;endSize=4;strokeWidth=2;" parent="1" source="u1CNOt_KkvuoJOrz82CR-53" target="u1CNOt_KkvuoJOrz82CR-51" edge="1">
          <mxGeometry relative="1" as="geometry" />
        </mxCell>
        <mxCell id="u1CNOt_KkvuoJOrz82CR-53" value="UITableView" style="rounded=0;whiteSpace=wrap;html=1;fillColor=none;strokeColor=#66FF66;fontColor=#00FF00;fillOpacity=0;strokeWidth=2;flipH=1;" parent="1" vertex="1">
          <mxGeometry x="4151" y="324" width="101" height="30" as="geometry" />
        </mxCell>
        <mxCell id="u1CNOt_KkvuoJOrz82CR-58" value="datasource&lt;br&gt;delegate&lt;br&gt;prefetching" style="text;html=1;strokeColor=none;fillColor=none;align=center;verticalAlign=middle;whiteSpace=wrap;rounded=0;fontSize=8;fontColor=#00FF00;" parent="1" vertex="1">
          <mxGeometry x="4068" y="295" width="60" height="33" as="geometry" />
        </mxCell>
        <mxCell id="u1CNOt_KkvuoJOrz82CR-59" value="populates" style="text;html=1;strokeColor=none;fillColor=none;align=center;verticalAlign=middle;whiteSpace=wrap;rounded=0;fontSize=8;fontColor=#B266FF;" parent="1" vertex="1">
          <mxGeometry x="4070" y="340" width="60" height="30" as="geometry" />
        </mxCell>
        <mxCell id="u1CNOt_KkvuoJOrz82CR-61" style="edgeStyle=orthogonalEdgeStyle;rounded=0;orthogonalLoop=1;jettySize=auto;html=1;exitX=1;exitY=0.5;exitDx=0;exitDy=0;entryX=0;entryY=0.5;entryDx=0;entryDy=0;strokeColor=#B266FF;endSize=4;strokeWidth=2;" parent="1" source="u1CNOt_KkvuoJOrz82CR-63" target="u1CNOt_KkvuoJOrz82CR-65" edge="1">
          <mxGeometry relative="1" as="geometry" />
        </mxCell>
        <mxCell id="u1CNOt_KkvuoJOrz82CR-62" style="edgeStyle=orthogonalEdgeStyle;rounded=0;orthogonalLoop=1;jettySize=auto;html=1;exitX=0;exitY=0.5;exitDx=0;exitDy=0;entryX=1;entryY=0.5;entryDx=0;entryDy=0;strokeColor=#B266FF;endSize=4;strokeWidth=2;" parent="1" source="u1CNOt_KkvuoJOrz82CR-63" target="u1CNOt_KkvuoJOrz82CR-66" edge="1">
          <mxGeometry relative="1" as="geometry" />
        </mxCell>
        <mxCell id="u1CNOt_KkvuoJOrz82CR-120" style="edgeStyle=orthogonalEdgeStyle;rounded=0;orthogonalLoop=1;jettySize=auto;html=1;exitX=0.25;exitY=1;exitDx=0;exitDy=0;entryX=1;entryY=0.75;entryDx=0;entryDy=0;strokeColor=#B266FF;endSize=4;strokeWidth=2;" parent="1" source="u1CNOt_KkvuoJOrz82CR-63" target="u1CNOt_KkvuoJOrz82CR-85" edge="1">
          <mxGeometry relative="1" as="geometry" />
        </mxCell>
        <mxCell id="u1CNOt_KkvuoJOrz82CR-122" style="edgeStyle=orthogonalEdgeStyle;rounded=0;orthogonalLoop=1;jettySize=auto;html=1;exitX=0.75;exitY=1;exitDx=0;exitDy=0;entryX=0.25;entryY=1;entryDx=0;entryDy=0;strokeColor=#B266FF;endSize=4;strokeWidth=2;" parent="1" source="u1CNOt_KkvuoJOrz82CR-63" target="u1CNOt_KkvuoJOrz82CR-65" edge="1">
          <mxGeometry relative="1" as="geometry">
            <Array as="points">
              <mxPoint x="4024" y="590" />
              <mxPoint x="4176" y="590" />
              <mxPoint x="4176" y="500" />
            </Array>
          </mxGeometry>
        </mxCell>
        <mxCell id="u1CNOt_KkvuoJOrz82CR-63" value="FeedImageCellController" style="rounded=0;whiteSpace=wrap;html=1;fillColor=none;strokeColor=#B266FF;fontColor=#B266FF;fillOpacity=0;strokeWidth=2;flipH=1;" parent="1" vertex="1">
          <mxGeometry x="3890" y="439" width="179" height="30" as="geometry" />
        </mxCell>
        <mxCell id="u1CNOt_KkvuoJOrz82CR-65" value="FeedImageCell" style="rounded=0;whiteSpace=wrap;html=1;fillColor=none;strokeColor=#66FF66;fontColor=#00FF00;fillOpacity=0;strokeWidth=2;flipH=1;" parent="1" vertex="1">
          <mxGeometry x="4151" y="439" width="101" height="30" as="geometry" />
        </mxCell>
        <mxCell id="u1CNOt_KkvuoJOrz82CR-66" value="FeedImage" style="rounded=0;whiteSpace=wrap;html=1;fillColor=#f5f5f5;strokeColor=#FF3333;fontColor=#FF3333;fillOpacity=0;strokeWidth=2;flipH=1;" parent="1" vertex="1">
          <mxGeometry x="3692" y="439" width="130" height="30" as="geometry" />
        </mxCell>
        <mxCell id="u1CNOt_KkvuoJOrz82CR-68" value="creates&lt;br&gt;&lt;br&gt;configures" style="text;html=1;strokeColor=none;fillColor=none;align=center;verticalAlign=middle;whiteSpace=wrap;rounded=0;fontSize=8;fontColor=#B266FF;" parent="1" vertex="1">
          <mxGeometry x="4075" y="438.5" width="60" height="30" as="geometry" />
        </mxCell>
        <mxCell id="u1CNOt_KkvuoJOrz82CR-69" value="manages" style="text;html=1;strokeColor=none;fillColor=none;align=center;verticalAlign=middle;whiteSpace=wrap;rounded=0;fontSize=8;fontColor=#B266FF;" parent="1" vertex="1">
          <mxGeometry x="3831" y="448" width="60" height="30" as="geometry" />
        </mxCell>
        <mxCell id="u1CNOt_KkvuoJOrz82CR-119" style="edgeStyle=orthogonalEdgeStyle;rounded=0;orthogonalLoop=1;jettySize=auto;html=1;exitX=1;exitY=0.25;exitDx=0;exitDy=0;strokeColor=#FF3333;fontColor=#A8A8A8;dashed=1;endFill=1;fillColor=#f5f5f5;endSize=4;strokeWidth=2;" parent="1" source="u1CNOt_KkvuoJOrz82CR-85" edge="1">
          <mxGeometry relative="1" as="geometry">
            <mxPoint x="3910" y="470" as="targetPoint" />
          </mxGeometry>
        </mxCell>
        <mxCell id="u1CNOt_KkvuoJOrz82CR-85" value="&amp;lt;FeedImageDataLoader&amp;gt;" style="rounded=0;whiteSpace=wrap;html=1;fillColor=#f5f5f5;strokeColor=#FF3333;fontColor=#FF3333;fillOpacity=0;strokeWidth=2;flipH=1;" parent="1" vertex="1">
          <mxGeometry x="3660" y="565" width="162" height="30" as="geometry" />
        </mxCell>
        <mxCell id="u1CNOt_KkvuoJOrz82CR-86" value="completion&lt;br style=&quot;font-size: 8px;&quot;&gt;callback" style="text;html=1;strokeColor=none;fillColor=none;align=center;verticalAlign=middle;whiteSpace=wrap;rounded=0;fontSize=8;fontColor=#FF3333;" parent="1" vertex="1">
          <mxGeometry x="3837" y="544" width="60" height="30" as="geometry" />
        </mxCell>
        <mxCell id="u1CNOt_KkvuoJOrz82CR-87" value="State&lt;br&gt;isLoading: Bool&lt;br&gt;hasFailed: Bool&lt;br&gt;Running Tasks: [IndexPath: Task]" style="text;html=1;strokeColor=none;fillColor=none;align=center;verticalAlign=middle;whiteSpace=wrap;rounded=0;fontSize=8;fontColor=#FF3333;" parent="1" vertex="1">
          <mxGeometry x="3672" y="509" width="132" height="59" as="geometry" />
        </mxCell>
        <mxCell id="u1CNOt_KkvuoJOrz82CR-88" value="retry&lt;br&gt;closure" style="text;html=1;strokeColor=none;fillColor=none;align=center;verticalAlign=middle;whiteSpace=wrap;rounded=0;fontSize=8;fontColor=#00FF00;" parent="1" vertex="1">
          <mxGeometry x="4075" y="538" width="60" height="30" as="geometry" />
        </mxCell>
        <mxCell id="u1CNOt_KkvuoJOrz82CR-89" value="updates" style="text;html=1;strokeColor=none;fillColor=none;align=center;verticalAlign=middle;whiteSpace=wrap;rounded=0;fontSize=8;fontColor=#B266FF;" parent="1" vertex="1">
          <mxGeometry x="4075" y="585" width="60" height="30" as="geometry" />
        </mxCell>
        <mxCell id="u1CNOt_KkvuoJOrz82CR-90" value="manages" style="text;html=1;strokeColor=none;fillColor=none;align=center;verticalAlign=middle;whiteSpace=wrap;rounded=0;fontSize=8;fontColor=#B266FF;" parent="1" vertex="1">
          <mxGeometry x="3879" y="583" width="60" height="30" as="geometry" />
        </mxCell>
        <mxCell id="u1CNOt_KkvuoJOrz82CR-177" style="edgeStyle=orthogonalEdgeStyle;rounded=0;orthogonalLoop=1;jettySize=auto;html=1;exitX=0.891;exitY=0.027;exitDx=0;exitDy=0;entryX=0.25;entryY=1;entryDx=0;entryDy=0;exitPerimeter=0;strokeColor=#009999;endSize=4;strokeWidth=2;fontColor=#009999;" parent="1" source="u1CNOt_KkvuoJOrz82CR-91" target="8W7GUWQGtb0MU_4nZzis-58" edge="1">
          <mxGeometry relative="1" as="geometry">
            <Array as="points">
              <mxPoint x="2320" y="530" />
              <mxPoint x="2588" y="530" />
            </Array>
          </mxGeometry>
        </mxCell>
        <mxCell id="u1CNOt_KkvuoJOrz82CR-256" style="edgeStyle=orthogonalEdgeStyle;rounded=0;orthogonalLoop=1;jettySize=auto;html=1;exitX=0.5;exitY=0;exitDx=0;exitDy=0;entryX=0;entryY=0.25;entryDx=0;entryDy=0;strokeColor=#009999;endSize=4;strokeWidth=2;fontColor=#009999;" parent="1" source="u1CNOt_KkvuoJOrz82CR-91" target="8W7GUWQGtb0MU_4nZzis-29" edge="1">
          <mxGeometry relative="1" as="geometry" />
        </mxCell>
        <mxCell id="u1CNOt_KkvuoJOrz82CR-91" value="FeedViewModel" style="rounded=0;whiteSpace=wrap;html=1;fillColor=none;strokeColor=#009999;fontColor=#009999;fillOpacity=0;strokeWidth=2;" parent="1" vertex="1">
          <mxGeometry x="2218.13" y="552" width="113.75" height="30" as="geometry" />
        </mxCell>
        <mxCell id="u1CNOt_KkvuoJOrz82CR-258" style="edgeStyle=orthogonalEdgeStyle;rounded=0;orthogonalLoop=1;jettySize=auto;html=1;exitX=0.5;exitY=0;exitDx=0;exitDy=0;entryX=0.5;entryY=1;entryDx=0;entryDy=0;strokeColor=#B266FF;endSize=4;strokeWidth=2;" parent="1" source="u1CNOt_KkvuoJOrz82CR-92" target="u1CNOt_KkvuoJOrz82CR-91" edge="1">
          <mxGeometry relative="1" as="geometry" />
        </mxCell>
        <mxCell id="u1CNOt_KkvuoJOrz82CR-259" style="edgeStyle=orthogonalEdgeStyle;rounded=0;orthogonalLoop=1;jettySize=auto;html=1;exitX=0.5;exitY=1;exitDx=0;exitDy=0;entryX=0.5;entryY=0;entryDx=0;entryDy=0;strokeColor=#B266FF;endSize=4;strokeWidth=2;" parent="1" source="u1CNOt_KkvuoJOrz82CR-92" target="u1CNOt_KkvuoJOrz82CR-17" edge="1">
          <mxGeometry relative="1" as="geometry" />
        </mxCell>
        <mxCell id="u1CNOt_KkvuoJOrz82CR-92" value="FeedRefreshViewController" style="rounded=0;whiteSpace=wrap;html=1;fillColor=none;strokeColor=#B266FF;fontColor=#B266FF;fillOpacity=0;strokeWidth=2;" parent="1" vertex="1">
          <mxGeometry x="2190" y="748" width="170" height="30" as="geometry" />
        </mxCell>
        <mxCell id="u1CNOt_KkvuoJOrz82CR-95" value="" style="endArrow=classic;html=1;rounded=0;strokeColor=#B266FF;endSize=4;strokeWidth=2;" parent="1" edge="1">
          <mxGeometry width="50" height="50" relative="1" as="geometry">
            <mxPoint x="1890" y="830" as="sourcePoint" />
            <mxPoint x="2010" y="830" as="targetPoint" />
          </mxGeometry>
        </mxCell>
        <mxCell id="u1CNOt_KkvuoJOrz82CR-96" value="" style="endArrow=block;html=1;rounded=0;strokeColor=#B266FF;endSize=6;strokeWidth=2;endFill=0;" parent="1" edge="1">
          <mxGeometry width="50" height="50" relative="1" as="geometry">
            <mxPoint x="1890" y="860" as="sourcePoint" />
            <mxPoint x="2010" y="860" as="targetPoint" />
          </mxGeometry>
        </mxCell>
        <mxCell id="u1CNOt_KkvuoJOrz82CR-97" value="" style="endArrow=block;html=1;rounded=0;strokeColor=#B266FF;endSize=4;strokeWidth=2;endFill=0;fontColor=#FF0080;dashed=1;fillColor=#f5f5f5;" parent="1" edge="1">
          <mxGeometry width="50" height="50" relative="1" as="geometry">
            <mxPoint x="1890" y="890" as="sourcePoint" />
            <mxPoint x="2010" y="890" as="targetPoint" />
          </mxGeometry>
        </mxCell>
        <mxCell id="u1CNOt_KkvuoJOrz82CR-101" style="edgeStyle=orthogonalEdgeStyle;rounded=0;orthogonalLoop=1;jettySize=auto;html=1;exitX=1;exitY=0.25;exitDx=0;exitDy=0;entryX=0;entryY=0.25;entryDx=0;entryDy=0;strokeColor=#009999;endSize=4;strokeWidth=2;fontColor=#009999;" parent="1" source="u1CNOt_KkvuoJOrz82CR-99" target="u1CNOt_KkvuoJOrz82CR-20" edge="1">
          <mxGeometry relative="1" as="geometry" />
        </mxCell>
        <mxCell id="u1CNOt_KkvuoJOrz82CR-149" style="edgeStyle=orthogonalEdgeStyle;rounded=0;orthogonalLoop=1;jettySize=auto;html=1;exitX=1;exitY=0.75;exitDx=0;exitDy=0;entryX=0;entryY=0.5;entryDx=0;entryDy=0;strokeColor=#009999;endSize=4;strokeWidth=2;fontColor=#009999;" parent="1" source="u1CNOt_KkvuoJOrz82CR-99" target="u1CNOt_KkvuoJOrz82CR-19" edge="1">
          <mxGeometry relative="1" as="geometry" />
        </mxCell>
        <mxCell id="u1CNOt_KkvuoJOrz82CR-166" style="edgeStyle=orthogonalEdgeStyle;rounded=0;orthogonalLoop=1;jettySize=auto;html=1;exitX=0.889;exitY=-0.037;exitDx=0;exitDy=0;entryX=0.5;entryY=1;entryDx=0;entryDy=0;exitPerimeter=0;strokeColor=#009999;endSize=4;strokeWidth=2;fontColor=#009999;" parent="1" source="u1CNOt_KkvuoJOrz82CR-99" target="8W7GUWQGtb0MU_4nZzis-58" edge="1">
          <mxGeometry relative="1" as="geometry" />
        </mxCell>
        <mxCell id="u1CNOt_KkvuoJOrz82CR-99" value="FeedImageViewModel" style="rounded=0;whiteSpace=wrap;html=1;fillColor=none;strokeColor=#009999;fontColor=#009999;fillOpacity=0;strokeWidth=2;" parent="1" vertex="1">
          <mxGeometry x="2451" y="545" width="180" height="30" as="geometry" />
        </mxCell>
        <mxCell id="u1CNOt_KkvuoJOrz82CR-107" value="" style="endArrow=classic;html=1;rounded=0;strokeColor=#B266FF;endSize=4;strokeWidth=2;endFill=1;fontColor=#A8A8A8;dashed=1;fillColor=#f5f5f5;" parent="1" edge="1">
          <mxGeometry width="50" height="50" relative="1" as="geometry">
            <mxPoint x="1890" y="800" as="sourcePoint" />
            <mxPoint x="2010" y="800" as="targetPoint" />
          </mxGeometry>
        </mxCell>
        <mxCell id="u1CNOt_KkvuoJOrz82CR-115" value="internal" style="text;html=1;strokeColor=none;fillColor=none;align=center;verticalAlign=middle;whiteSpace=wrap;rounded=0;fontSize=6;fontColor=#009999;strokeWidth=2;" parent="1" vertex="1">
          <mxGeometry x="2604" y="545" width="25" height="10" as="geometry" />
        </mxCell>
        <mxCell id="u1CNOt_KkvuoJOrz82CR-116" value="internal" style="text;html=1;strokeColor=none;fillColor=none;align=center;verticalAlign=middle;whiteSpace=wrap;rounded=0;fontSize=6;fontColor=#B266FF;strokeWidth=2;" parent="1" vertex="1">
          <mxGeometry x="2221.25" y="748" width="25" height="10" as="geometry" />
        </mxCell>
        <mxCell id="u1CNOt_KkvuoJOrz82CR-124" style="edgeStyle=orthogonalEdgeStyle;rounded=0;orthogonalLoop=1;jettySize=auto;html=1;entryX=0;entryY=0.5;entryDx=0;entryDy=0;strokeColor=#007FFF;fontColor=#A8A8A8;dashed=1;endFill=1;fillColor=#f5f5f5;endSize=4;strokeWidth=2;" parent="1" source="u1CNOt_KkvuoJOrz82CR-117" target="u1CNOt_KkvuoJOrz82CR-51" edge="1">
          <mxGeometry relative="1" as="geometry" />
        </mxCell>
        <mxCell id="u1CNOt_KkvuoJOrz82CR-129" style="edgeStyle=orthogonalEdgeStyle;rounded=0;orthogonalLoop=1;jettySize=auto;html=1;exitX=0.75;exitY=0;exitDx=0;exitDy=0;entryX=0.25;entryY=1;entryDx=0;entryDy=0;strokeColor=#007FFF;fontColor=#A8A8A8;dashed=1;endFill=1;fillColor=#f5f5f5;endSize=4;strokeWidth=2;" parent="1" source="u1CNOt_KkvuoJOrz82CR-117" target="u1CNOt_KkvuoJOrz82CR-34" edge="1">
          <mxGeometry relative="1" as="geometry" />
        </mxCell>
        <mxCell id="u1CNOt_KkvuoJOrz82CR-130" style="edgeStyle=orthogonalEdgeStyle;rounded=0;orthogonalLoop=1;jettySize=auto;html=1;exitX=0.75;exitY=1;exitDx=0;exitDy=0;entryX=0.25;entryY=0;entryDx=0;entryDy=0;strokeColor=#007FFF;fontColor=#A8A8A8;dashed=1;endFill=1;fillColor=#f5f5f5;endSize=4;strokeWidth=2;" parent="1" source="u1CNOt_KkvuoJOrz82CR-117" target="u1CNOt_KkvuoJOrz82CR-63" edge="1">
          <mxGeometry relative="1" as="geometry" />
        </mxCell>
        <mxCell id="u1CNOt_KkvuoJOrz82CR-117" value="FeedUIComposer" style="rounded=0;whiteSpace=wrap;html=1;fillColor=#f5f5f5;strokeColor=#007FFF;fontColor=#007FFF;fillOpacity=0;strokeWidth=2;flipH=1;" parent="1" vertex="1">
          <mxGeometry x="3390" y="324" width="130" height="30" as="geometry" />
        </mxCell>
        <mxCell id="u1CNOt_KkvuoJOrz82CR-123" style="edgeStyle=orthogonalEdgeStyle;rounded=0;orthogonalLoop=1;jettySize=auto;html=1;entryX=0.141;entryY=1.022;entryDx=0;entryDy=0;entryPerimeter=0;strokeColor=#00FF00;fontColor=#A8A8A8;dashed=1;endFill=1;fillColor=#f5f5f5;endSize=4;strokeWidth=2;exitX=0.873;exitY=1.036;exitDx=0;exitDy=0;exitPerimeter=0;" parent="1" source="u1CNOt_KkvuoJOrz82CR-65" target="u1CNOt_KkvuoJOrz82CR-63" edge="1">
          <mxGeometry relative="1" as="geometry">
            <Array as="points">
              <mxPoint x="4164" y="570" />
              <mxPoint x="4044" y="570" />
              <mxPoint x="4044" y="489" />
            </Array>
          </mxGeometry>
        </mxCell>
        <mxCell id="u1CNOt_KkvuoJOrz82CR-127" value="uses" style="text;html=1;strokeColor=none;fillColor=none;align=center;verticalAlign=middle;whiteSpace=wrap;rounded=0;fontSize=8;fontColor=#B266FF;" parent="1" vertex="1">
          <mxGeometry x="3963" y="278" width="60" height="30" as="geometry" />
        </mxCell>
        <mxCell id="u1CNOt_KkvuoJOrz82CR-128" value="uses" style="text;html=1;strokeColor=none;fillColor=none;align=center;verticalAlign=middle;whiteSpace=wrap;rounded=0;fontSize=8;fontColor=#B266FF;" parent="1" vertex="1">
          <mxGeometry x="3963" y="378" width="60" height="30" as="geometry" />
        </mxCell>
        <mxCell id="u1CNOt_KkvuoJOrz82CR-131" value="creates" style="text;html=1;strokeColor=none;fillColor=none;align=center;verticalAlign=middle;whiteSpace=wrap;rounded=0;fontSize=8;fontColor=#007FFF;" parent="1" vertex="1">
          <mxGeometry x="3540" y="262.5" width="60" height="30" as="geometry" />
        </mxCell>
        <mxCell id="u1CNOt_KkvuoJOrz82CR-132" value="creates" style="text;html=1;strokeColor=none;fillColor=none;align=center;verticalAlign=middle;whiteSpace=wrap;rounded=0;fontSize=8;fontColor=#007FFF;" parent="1" vertex="1">
          <mxGeometry x="3540" y="315" width="60" height="30" as="geometry" />
        </mxCell>
        <mxCell id="u1CNOt_KkvuoJOrz82CR-133" value="creates" style="text;html=1;strokeColor=none;fillColor=none;align=center;verticalAlign=middle;whiteSpace=wrap;rounded=0;fontSize=8;fontColor=#007FFF;" parent="1" vertex="1">
          <mxGeometry x="3540" y="373" width="60" height="30" as="geometry" />
        </mxCell>
        <mxCell id="u1CNOt_KkvuoJOrz82CR-134" value="Composer" style="text;html=1;strokeColor=none;fillColor=none;align=center;verticalAlign=middle;whiteSpace=wrap;rounded=0;fontSize=12;fontColor=#007FFF;" parent="1" vertex="1">
          <mxGeometry x="3470" y="144" width="80" height="30" as="geometry" />
        </mxCell>
        <mxCell id="u1CNOt_KkvuoJOrz82CR-135" value="" style="endArrow=none;dashed=1;html=1;rounded=0;strokeColor=#007FFF;" parent="1" edge="1">
          <mxGeometry width="50" height="50" relative="1" as="geometry">
            <mxPoint x="3620" y="660" as="sourcePoint" />
            <mxPoint x="3620" y="94" as="targetPoint" />
          </mxGeometry>
        </mxCell>
        <mxCell id="u1CNOt_KkvuoJOrz82CR-261" style="edgeStyle=orthogonalEdgeStyle;rounded=0;orthogonalLoop=1;jettySize=auto;html=1;exitX=1.004;exitY=0.859;exitDx=0;exitDy=0;entryX=0.585;entryY=0;entryDx=0;entryDy=0;entryPerimeter=0;exitPerimeter=0;strokeColor=#B266FF;fontColor=#A8A8A8;endSize=4;strokeWidth=2;endFill=1;dashed=1;fillColor=#f5f5f5;" parent="1" source="u1CNOt_KkvuoJOrz82CR-145" target="8W7GUWQGtb0MU_4nZzis-27" edge="1">
          <mxGeometry relative="1" as="geometry" />
        </mxCell>
        <mxCell id="u1CNOt_KkvuoJOrz82CR-262" style="edgeStyle=orthogonalEdgeStyle;rounded=0;orthogonalLoop=1;jettySize=auto;html=1;exitX=0;exitY=0.75;exitDx=0;exitDy=0;entryX=0.75;entryY=0;entryDx=0;entryDy=0;strokeColor=#B266FF;fontColor=#A8A8A8;endSize=4;strokeWidth=2;endFill=1;dashed=1;fillColor=#f5f5f5;" parent="1" source="u1CNOt_KkvuoJOrz82CR-145" target="u1CNOt_KkvuoJOrz82CR-92" edge="1">
          <mxGeometry relative="1" as="geometry" />
        </mxCell>
        <mxCell id="u1CNOt_KkvuoJOrz82CR-265" style="edgeStyle=orthogonalEdgeStyle;rounded=0;orthogonalLoop=1;jettySize=auto;html=1;exitX=0.25;exitY=0;exitDx=0;exitDy=0;entryX=0;entryY=0.75;entryDx=0;entryDy=0;strokeColor=#B266FF;fontColor=#A8A8A8;endSize=4;strokeWidth=2;endFill=1;dashed=1;fillColor=#f5f5f5;" parent="1" source="u1CNOt_KkvuoJOrz82CR-145" target="8W7GUWQGtb0MU_4nZzis-29" edge="1">
          <mxGeometry relative="1" as="geometry" />
        </mxCell>
        <mxCell id="u1CNOt_KkvuoJOrz82CR-266" style="edgeStyle=orthogonalEdgeStyle;rounded=0;orthogonalLoop=1;jettySize=auto;html=1;exitX=1;exitY=0.5;exitDx=0;exitDy=0;entryX=0;entryY=0.5;entryDx=0;entryDy=0;strokeColor=#B266FF;fontColor=#A8A8A8;endSize=4;strokeWidth=2;endFill=1;dashed=1;fillColor=#f5f5f5;" parent="1" source="u1CNOt_KkvuoJOrz82CR-145" target="u1CNOt_KkvuoJOrz82CR-151" edge="1">
          <mxGeometry relative="1" as="geometry" />
        </mxCell>
        <mxCell id="u1CNOt_KkvuoJOrz82CR-267" style="edgeStyle=orthogonalEdgeStyle;rounded=0;orthogonalLoop=1;jettySize=auto;html=1;exitX=1;exitY=0.25;exitDx=0;exitDy=0;entryX=0.5;entryY=1;entryDx=0;entryDy=0;strokeColor=#B266FF;fontColor=#A8A8A8;endSize=4;strokeWidth=2;endFill=1;dashed=1;fillColor=#f5f5f5;" parent="1" source="u1CNOt_KkvuoJOrz82CR-145" target="u1CNOt_KkvuoJOrz82CR-99" edge="1">
          <mxGeometry relative="1" as="geometry" />
        </mxCell>
        <mxCell id="u1CNOt_KkvuoJOrz82CR-268" style="edgeStyle=orthogonalEdgeStyle;rounded=0;orthogonalLoop=1;jettySize=auto;html=1;exitX=0.5;exitY=0;exitDx=0;exitDy=0;entryX=1;entryY=0.25;entryDx=0;entryDy=0;strokeColor=#B266FF;fontColor=#A8A8A8;endSize=4;strokeWidth=2;endFill=1;dashed=1;fillColor=#f5f5f5;" parent="1" source="u1CNOt_KkvuoJOrz82CR-145" target="u1CNOt_KkvuoJOrz82CR-19" edge="1">
          <mxGeometry relative="1" as="geometry">
            <Array as="points">
              <mxPoint x="2410" y="618" />
              <mxPoint x="2892" y="618" />
              <mxPoint x="2892" y="581" />
            </Array>
          </mxGeometry>
        </mxCell>
        <mxCell id="u1CNOt_KkvuoJOrz82CR-269" style="edgeStyle=orthogonalEdgeStyle;rounded=0;orthogonalLoop=1;jettySize=auto;html=1;exitX=0.5;exitY=0;exitDx=0;exitDy=0;entryX=1;entryY=0.5;entryDx=0;entryDy=0;strokeColor=#B266FF;fontColor=#A8A8A8;endSize=4;strokeWidth=2;endFill=1;dashed=1;fillColor=#f5f5f5;" parent="1" source="u1CNOt_KkvuoJOrz82CR-145" target="u1CNOt_KkvuoJOrz82CR-20" edge="1">
          <mxGeometry relative="1" as="geometry">
            <Array as="points">
              <mxPoint x="2410" y="618" />
              <mxPoint x="2892" y="618" />
              <mxPoint x="2892" y="542" />
            </Array>
          </mxGeometry>
        </mxCell>
        <mxCell id="u1CNOt_KkvuoJOrz82CR-145" value="FeedUIComposer" style="rounded=0;whiteSpace=wrap;html=1;fillColor=none;strokeColor=#B266FF;fontColor=#B266FF;fillOpacity=0;strokeWidth=2;" parent="1" vertex="1">
          <mxGeometry x="2352" y="661" width="116.75" height="36" as="geometry" />
        </mxCell>
        <mxCell id="u1CNOt_KkvuoJOrz82CR-146" value="internal" style="text;html=1;strokeColor=none;fillColor=none;align=center;verticalAlign=middle;whiteSpace=wrap;rounded=0;fontSize=6;fontColor=#009999;strokeWidth=2;" parent="1" vertex="1">
          <mxGeometry x="2306.88" y="552" width="25" height="10" as="geometry" />
        </mxCell>
        <mxCell id="u1CNOt_KkvuoJOrz82CR-175" style="edgeStyle=orthogonalEdgeStyle;rounded=0;orthogonalLoop=1;jettySize=auto;html=1;exitX=0.25;exitY=0;exitDx=0;exitDy=0;entryX=0.887;entryY=1.002;entryDx=0;entryDy=0;strokeColor=#B266FF;endSize=4;strokeWidth=2;entryPerimeter=0;" parent="1" source="u1CNOt_KkvuoJOrz82CR-151" target="u1CNOt_KkvuoJOrz82CR-99" edge="1">
          <mxGeometry relative="1" as="geometry">
            <Array as="points">
              <mxPoint x="2635" y="608" />
              <mxPoint x="2610" y="608" />
              <mxPoint x="2610" y="575" />
            </Array>
          </mxGeometry>
        </mxCell>
        <mxCell id="u1CNOt_KkvuoJOrz82CR-251" style="edgeStyle=orthogonalEdgeStyle;rounded=0;orthogonalLoop=1;jettySize=auto;html=1;exitX=1;exitY=0.5;exitDx=0;exitDy=0;entryX=0.5;entryY=0;entryDx=0;entryDy=0;strokeColor=#B266FF;endSize=4;strokeWidth=2;" parent="1" source="u1CNOt_KkvuoJOrz82CR-151" target="u1CNOt_KkvuoJOrz82CR-153" edge="1">
          <mxGeometry relative="1" as="geometry" />
        </mxCell>
        <mxCell id="u1CNOt_KkvuoJOrz82CR-252" style="edgeStyle=orthogonalEdgeStyle;rounded=0;orthogonalLoop=1;jettySize=auto;html=1;exitX=0.5;exitY=1;exitDx=0;exitDy=0;entryX=0.5;entryY=0;entryDx=0;entryDy=0;strokeColor=#B266FF;endSize=4;strokeWidth=2;" parent="1" source="u1CNOt_KkvuoJOrz82CR-151" target="u1CNOt_KkvuoJOrz82CR-21" edge="1">
          <mxGeometry relative="1" as="geometry" />
        </mxCell>
        <mxCell id="u1CNOt_KkvuoJOrz82CR-151" value="FeedImageCellController" style="rounded=0;whiteSpace=wrap;html=1;fillColor=none;strokeColor=#B266FF;fontColor=#B266FF;fillOpacity=0;strokeWidth=2;" parent="1" vertex="1">
          <mxGeometry x="2590" y="664" width="180" height="30" as="geometry" />
        </mxCell>
        <mxCell id="u1CNOt_KkvuoJOrz82CR-152" value="internal" style="text;html=1;strokeColor=none;fillColor=none;align=center;verticalAlign=middle;whiteSpace=wrap;rounded=0;fontSize=6;fontColor=#B266FF;strokeWidth=2;" parent="1" vertex="1">
          <mxGeometry x="2724.5" y="664" width="25" height="10" as="geometry" />
        </mxCell>
        <mxCell id="u1CNOt_KkvuoJOrz82CR-153" value="UIImage" style="rounded=0;whiteSpace=wrap;html=1;fillColor=none;strokeColor=#66FF66;fontColor=#00FF00;fillOpacity=0;strokeWidth=2;" parent="1" vertex="1">
          <mxGeometry x="2762" y="856" width="73" height="30" as="geometry" />
        </mxCell>
        <mxCell id="u1CNOt_KkvuoJOrz82CR-161" value="&amp;lt;&amp;lt;creates&amp;gt;&amp;gt;" style="text;html=1;strokeColor=none;fillColor=none;align=center;verticalAlign=middle;whiteSpace=wrap;rounded=0;fontSize=7;fontColor=#B266FF;labelBackgroundColor=default;" parent="1" vertex="1">
          <mxGeometry x="2299.5" y="662" width="60" height="30" as="geometry" />
        </mxCell>
        <mxCell id="u1CNOt_KkvuoJOrz82CR-184" style="edgeStyle=orthogonalEdgeStyle;rounded=0;orthogonalLoop=1;jettySize=auto;html=1;exitX=1;exitY=0.75;exitDx=0;exitDy=0;entryX=0;entryY=0.75;entryDx=0;entryDy=0;strokeColor=#FFD966;endSize=4;strokeWidth=2;fontColor=#A8A8A8;dashed=1;endFill=1;fillColor=#f5f5f5;" parent="1" source="u1CNOt_KkvuoJOrz82CR-186" target="u1CNOt_KkvuoJOrz82CR-188" edge="1">
          <mxGeometry relative="1" as="geometry" />
        </mxCell>
        <mxCell id="u1CNOt_KkvuoJOrz82CR-185" style="edgeStyle=orthogonalEdgeStyle;rounded=0;orthogonalLoop=1;jettySize=auto;html=1;exitX=0;exitY=0.75;exitDx=0;exitDy=0;entryX=1;entryY=0.75;entryDx=0;entryDy=0;strokeColor=#FFD966;endSize=4;strokeWidth=2;" parent="1" source="u1CNOt_KkvuoJOrz82CR-186" target="u1CNOt_KkvuoJOrz82CR-190" edge="1">
          <mxGeometry relative="1" as="geometry" />
        </mxCell>
        <mxCell id="u1CNOt_KkvuoJOrz82CR-186" value="FeedViewModel" style="rounded=0;whiteSpace=wrap;html=1;fillColor=none;strokeColor=#FFD966;fontColor=#FFD966;fillOpacity=0;strokeWidth=2;flipH=1;" parent="1" vertex="1">
          <mxGeometry x="4719.5" y="243.5" width="140" height="30" as="geometry" />
        </mxCell>
        <mxCell id="u1CNOt_KkvuoJOrz82CR-187" style="edgeStyle=orthogonalEdgeStyle;rounded=0;orthogonalLoop=1;jettySize=auto;html=1;exitX=0;exitY=0.25;exitDx=0;exitDy=0;entryX=1;entryY=0.25;entryDx=0;entryDy=0;strokeColor=#00FF00;fontColor=#A8A8A8;dashed=1;endFill=1;fillColor=#f5f5f5;endSize=4;strokeWidth=2;" parent="1" source="u1CNOt_KkvuoJOrz82CR-188" target="u1CNOt_KkvuoJOrz82CR-186" edge="1">
          <mxGeometry relative="1" as="geometry" />
        </mxCell>
        <mxCell id="u1CNOt_KkvuoJOrz82CR-188" value="UIRefreshControl" style="rounded=0;whiteSpace=wrap;html=1;fillColor=none;strokeColor=#66FF66;fontColor=#00FF00;fillOpacity=0;strokeWidth=2;flipH=1;" parent="1" vertex="1">
          <mxGeometry x="4979.5" y="244" width="138" height="30" as="geometry" />
        </mxCell>
        <mxCell id="u1CNOt_KkvuoJOrz82CR-189" style="edgeStyle=orthogonalEdgeStyle;rounded=0;orthogonalLoop=1;jettySize=auto;html=1;exitX=1;exitY=0.25;exitDx=0;exitDy=0;entryX=0;entryY=0.25;entryDx=0;entryDy=0;strokeColor=#FF3333;fontColor=#A8A8A8;dashed=1;endFill=1;fillColor=#f5f5f5;endSize=4;strokeWidth=2;" parent="1" source="u1CNOt_KkvuoJOrz82CR-190" target="u1CNOt_KkvuoJOrz82CR-186" edge="1">
          <mxGeometry relative="1" as="geometry" />
        </mxCell>
        <mxCell id="u1CNOt_KkvuoJOrz82CR-190" value="&amp;lt;FeedLoader&amp;gt;" style="rounded=0;whiteSpace=wrap;html=1;fillColor=#f5f5f5;strokeColor=#FF3333;fontColor=#FF3333;fillOpacity=0;strokeWidth=2;flipH=1;" parent="1" vertex="1">
          <mxGeometry x="4501" y="244" width="94" height="30" as="geometry" />
        </mxCell>
        <mxCell id="u1CNOt_KkvuoJOrz82CR-191" value="completion&lt;br style=&quot;font-size: 8px;&quot;&gt;callback" style="text;html=1;strokeColor=none;fillColor=none;align=center;verticalAlign=middle;whiteSpace=wrap;rounded=0;fontSize=8;fontColor=#FF3333;" parent="1" vertex="1">
          <mxGeometry x="4617" y="223" width="60" height="30" as="geometry" />
        </mxCell>
        <mxCell id="u1CNOt_KkvuoJOrz82CR-192" value="State&lt;br&gt;isLoading: Bool" style="text;html=1;strokeColor=none;fillColor=none;align=center;verticalAlign=middle;whiteSpace=wrap;rounded=0;fontSize=8;fontColor=#FF3333;" parent="1" vertex="1">
          <mxGeometry x="4515" y="214" width="60" height="30" as="geometry" />
        </mxCell>
        <mxCell id="u1CNOt_KkvuoJOrz82CR-193" value="events" style="text;html=1;strokeColor=none;fillColor=none;align=center;verticalAlign=middle;whiteSpace=wrap;rounded=0;fontSize=8;fontColor=#00FF00;" parent="1" vertex="1">
          <mxGeometry x="4885" y="227" width="60" height="30" as="geometry" />
        </mxCell>
        <mxCell id="u1CNOt_KkvuoJOrz82CR-194" value="notify state changes" style="text;html=1;strokeColor=none;fillColor=none;align=center;verticalAlign=middle;whiteSpace=wrap;rounded=0;fontSize=8;fontColor=#FFD966;" parent="1" vertex="1">
          <mxGeometry x="4870" y="260" width="90" height="30" as="geometry" />
        </mxCell>
        <mxCell id="u1CNOt_KkvuoJOrz82CR-195" value="manages" style="text;html=1;strokeColor=none;fillColor=none;align=center;verticalAlign=middle;whiteSpace=wrap;rounded=0;fontSize=8;fontColor=#FFD966;" parent="1" vertex="1">
          <mxGeometry x="4617" y="260" width="60" height="30" as="geometry" />
        </mxCell>
        <mxCell id="u1CNOt_KkvuoJOrz82CR-196" value="Model" style="text;html=1;strokeColor=none;fillColor=none;align=center;verticalAlign=middle;whiteSpace=wrap;rounded=0;fontSize=12;fontColor=#FF3333;" parent="1" vertex="1">
          <mxGeometry x="4515" y="127" width="60" height="30" as="geometry" />
        </mxCell>
        <mxCell id="u1CNOt_KkvuoJOrz82CR-197" value="ViewModel" style="text;html=1;strokeColor=none;fillColor=none;align=center;verticalAlign=middle;whiteSpace=wrap;rounded=0;fontSize=12;fontColor=#FFD966;" parent="1" vertex="1">
          <mxGeometry x="4745" y="127" width="95" height="30" as="geometry" />
        </mxCell>
        <mxCell id="u1CNOt_KkvuoJOrz82CR-198" value="View" style="text;html=1;strokeColor=none;fillColor=none;align=center;verticalAlign=middle;whiteSpace=wrap;rounded=0;fontSize=12;fontColor=#00FF00;" parent="1" vertex="1">
          <mxGeometry x="5030" y="127" width="60" height="30" as="geometry" />
        </mxCell>
        <mxCell id="u1CNOt_KkvuoJOrz82CR-241" style="edgeStyle=orthogonalEdgeStyle;rounded=0;orthogonalLoop=1;jettySize=auto;html=1;exitX=0.5;exitY=1;exitDx=0;exitDy=0;entryX=0.75;entryY=0;entryDx=0;entryDy=0;strokeColor=#B266FF;endSize=4;strokeWidth=2;" parent="1" source="u1CNOt_KkvuoJOrz82CR-235" target="u1CNOt_KkvuoJOrz82CR-186" edge="1">
          <mxGeometry relative="1" as="geometry">
            <Array as="points">
              <mxPoint x="4918" y="210" />
              <mxPoint x="4825" y="210" />
            </Array>
          </mxGeometry>
        </mxCell>
        <mxCell id="u1CNOt_KkvuoJOrz82CR-242" style="edgeStyle=orthogonalEdgeStyle;rounded=0;orthogonalLoop=1;jettySize=auto;html=1;exitX=0.5;exitY=1;exitDx=0;exitDy=0;entryX=0.25;entryY=0;entryDx=0;entryDy=0;strokeColor=#B266FF;endSize=4;strokeWidth=2;" parent="1" source="u1CNOt_KkvuoJOrz82CR-235" target="u1CNOt_KkvuoJOrz82CR-188" edge="1">
          <mxGeometry relative="1" as="geometry">
            <Array as="points">
              <mxPoint x="4918" y="210" />
              <mxPoint x="5014" y="210" />
            </Array>
          </mxGeometry>
        </mxCell>
        <mxCell id="u1CNOt_KkvuoJOrz82CR-235" value="FeedRefreshViewController" style="rounded=0;whiteSpace=wrap;html=1;fillColor=none;strokeColor=#B266FF;fontColor=#B266FF;fillOpacity=0;strokeWidth=2;flipH=1;" parent="1" vertex="1">
          <mxGeometry x="4833" y="173" width="170.5" height="30" as="geometry" />
        </mxCell>
        <mxCell id="u1CNOt_KkvuoJOrz82CR-239" value="binds" style="text;html=1;strokeColor=none;fillColor=none;align=center;verticalAlign=middle;whiteSpace=wrap;rounded=0;fontSize=8;fontColor=#B266FF;" parent="1" vertex="1">
          <mxGeometry x="4885" y="208" width="60" height="30" as="geometry" />
        </mxCell>
        <mxCell id="u1CNOt_KkvuoJOrz82CR-243" value="Binder" style="text;html=1;strokeColor=none;fillColor=none;align=center;verticalAlign=middle;whiteSpace=wrap;rounded=0;fontSize=12;fontColor=#B266FF;" parent="1" vertex="1">
          <mxGeometry x="4870.75" y="127" width="95" height="30" as="geometry" />
        </mxCell>
        <mxCell id="u1CNOt_KkvuoJOrz82CR-244" value="MVC" style="text;html=1;strokeColor=none;fillColor=none;align=center;verticalAlign=middle;whiteSpace=wrap;rounded=0;fontSize=22;fontStyle=1" parent="1" vertex="1">
          <mxGeometry x="3807" y="45" width="60" height="30" as="geometry" />
        </mxCell>
        <mxCell id="u1CNOt_KkvuoJOrz82CR-245" value="MVVM" style="text;html=1;strokeColor=none;fillColor=none;align=center;verticalAlign=middle;whiteSpace=wrap;rounded=0;fontSize=22;fontStyle=1" parent="1" vertex="1">
          <mxGeometry x="4810" y="45" width="100" height="30" as="geometry" />
        </mxCell>
        <mxCell id="u1CNOt_KkvuoJOrz82CR-264" style="edgeStyle=orthogonalEdgeStyle;rounded=0;orthogonalLoop=1;jettySize=auto;html=1;exitX=0;exitY=0.25;exitDx=0;exitDy=0;entryX=0.855;entryY=1.008;entryDx=0;entryDy=0;entryPerimeter=0;strokeColor=#B266FF;fontColor=#A8A8A8;endSize=4;strokeWidth=2;endFill=1;dashed=1;fillColor=#f5f5f5;" parent="1" source="u1CNOt_KkvuoJOrz82CR-145" target="u1CNOt_KkvuoJOrz82CR-91" edge="1">
          <mxGeometry relative="1" as="geometry" />
        </mxCell>
        <mxCell id="u1CNOt_KkvuoJOrz82CR-270" value="&amp;lt;&amp;lt;creates&amp;gt;&amp;gt;" style="text;html=1;strokeColor=none;fillColor=none;align=center;verticalAlign=middle;whiteSpace=wrap;rounded=0;fontSize=7;fontColor=#B266FF;labelBackgroundColor=default;" parent="1" vertex="1">
          <mxGeometry x="2461.75" y="669" width="60" height="30" as="geometry" />
        </mxCell>
        <mxCell id="u1CNOt_KkvuoJOrz82CR-276" value="Feed Presentation module" style="text;html=1;align=center;verticalAlign=middle;resizable=0;points=[];autosize=1;strokeColor=none;fillColor=none;fontSize=12;fontFamily=Helvetica;fontColor=#009999;strokeWidth=2;labelBackgroundColor=default;" parent="1" vertex="1">
          <mxGeometry x="2749.5" y="468" width="160" height="30" as="geometry" />
        </mxCell>
        <mxCell id="u1CNOt_KkvuoJOrz82CR-283" style="edgeStyle=orthogonalEdgeStyle;rounded=0;orthogonalLoop=1;jettySize=auto;html=1;exitX=1;exitY=0.25;exitDx=0;exitDy=0;entryX=0;entryY=0.25;entryDx=0;entryDy=0;strokeColor=#FF3333;fontColor=#A8A8A8;dashed=1;endFill=1;fillColor=#f5f5f5;endSize=4;strokeWidth=2;" parent="1" source="u1CNOt_KkvuoJOrz82CR-279" target="u1CNOt_KkvuoJOrz82CR-280" edge="1">
          <mxGeometry relative="1" as="geometry" />
        </mxCell>
        <mxCell id="u1CNOt_KkvuoJOrz82CR-279" value="Model" style="rounded=0;whiteSpace=wrap;html=1;fillColor=#f5f5f5;strokeColor=#FF3333;fontColor=#FF3333;fillOpacity=0;strokeWidth=2;flipH=1;" parent="1" vertex="1">
          <mxGeometry x="6570" y="140" width="110" height="30" as="geometry" />
        </mxCell>
        <mxCell id="u1CNOt_KkvuoJOrz82CR-282" style="edgeStyle=orthogonalEdgeStyle;rounded=0;orthogonalLoop=1;jettySize=auto;html=1;exitX=0;exitY=0.75;exitDx=0;exitDy=0;entryX=1;entryY=0.75;entryDx=0;entryDy=0;strokeColor=#B266FF;endSize=4;strokeWidth=2;" parent="1" source="u1CNOt_KkvuoJOrz82CR-280" target="u1CNOt_KkvuoJOrz82CR-279" edge="1">
          <mxGeometry relative="1" as="geometry" />
        </mxCell>
        <mxCell id="u1CNOt_KkvuoJOrz82CR-284" style="edgeStyle=orthogonalEdgeStyle;rounded=0;orthogonalLoop=1;jettySize=auto;html=1;exitX=1;exitY=0.75;exitDx=0;exitDy=0;entryX=0;entryY=0.75;entryDx=0;entryDy=0;strokeColor=#B266FF;endSize=4;strokeWidth=2;" parent="1" source="u1CNOt_KkvuoJOrz82CR-280" target="u1CNOt_KkvuoJOrz82CR-281" edge="1">
          <mxGeometry relative="1" as="geometry" />
        </mxCell>
        <mxCell id="u1CNOt_KkvuoJOrz82CR-280" value="Controller" style="rounded=0;whiteSpace=wrap;html=1;fillColor=none;strokeColor=#B266FF;fontColor=#B266FF;fillOpacity=0;strokeWidth=2;flipH=1;" parent="1" vertex="1">
          <mxGeometry x="6780" y="140" width="160" height="30" as="geometry" />
        </mxCell>
        <mxCell id="u1CNOt_KkvuoJOrz82CR-285" style="edgeStyle=orthogonalEdgeStyle;rounded=0;orthogonalLoop=1;jettySize=auto;html=1;exitX=0;exitY=0.25;exitDx=0;exitDy=0;entryX=1;entryY=0.25;entryDx=0;entryDy=0;strokeColor=#00FF00;fontColor=#A8A8A8;dashed=1;endFill=1;fillColor=#f5f5f5;endSize=4;strokeWidth=2;" parent="1" source="u1CNOt_KkvuoJOrz82CR-281" target="u1CNOt_KkvuoJOrz82CR-280" edge="1">
          <mxGeometry relative="1" as="geometry" />
        </mxCell>
        <mxCell id="u1CNOt_KkvuoJOrz82CR-281" value="View" style="rounded=0;whiteSpace=wrap;html=1;fillColor=none;strokeColor=#66FF66;fontColor=#00FF00;fillOpacity=0;strokeWidth=2;flipH=1;" parent="1" vertex="1">
          <mxGeometry x="7040" y="140" width="110" height="30" as="geometry" />
        </mxCell>
        <mxCell id="u1CNOt_KkvuoJOrz82CR-286" value="MVC" style="text;html=1;strokeColor=none;fillColor=none;align=center;verticalAlign=middle;whiteSpace=wrap;rounded=0;fontSize=18;fontStyle=1;fontColor=#FF3333;" parent="1" vertex="1">
          <mxGeometry x="6440" y="140" width="100" height="30" as="geometry" />
        </mxCell>
        <mxCell id="u1CNOt_KkvuoJOrz82CR-287" value="observer/&lt;br&gt;callback" style="text;html=1;strokeColor=none;fillColor=none;align=center;verticalAlign=middle;whiteSpace=wrap;rounded=0;fontSize=8;fontColor=#FF3333;" parent="1" vertex="1">
          <mxGeometry x="6700" y="114" width="60" height="30" as="geometry" />
        </mxCell>
        <mxCell id="u1CNOt_KkvuoJOrz82CR-288" value="events" style="text;html=1;strokeColor=none;fillColor=none;align=center;verticalAlign=middle;whiteSpace=wrap;rounded=0;fontSize=8;fontColor=#00FF00;" parent="1" vertex="1">
          <mxGeometry x="6960" y="120" width="60" height="30" as="geometry" />
        </mxCell>
        <mxCell id="u1CNOt_KkvuoJOrz82CR-289" value="updates" style="text;html=1;strokeColor=none;fillColor=none;align=center;verticalAlign=middle;whiteSpace=wrap;rounded=0;fontSize=8;fontColor=#B266FF;" parent="1" vertex="1">
          <mxGeometry x="6960" y="157" width="60" height="30" as="geometry" />
        </mxCell>
        <mxCell id="u1CNOt_KkvuoJOrz82CR-290" value="manages" style="text;html=1;strokeColor=none;fillColor=none;align=center;verticalAlign=middle;whiteSpace=wrap;rounded=0;fontSize=8;fontColor=#B266FF;" parent="1" vertex="1">
          <mxGeometry x="6700" y="157" width="60" height="30" as="geometry" />
        </mxCell>
        <mxCell id="u1CNOt_KkvuoJOrz82CR-291" style="edgeStyle=orthogonalEdgeStyle;rounded=0;orthogonalLoop=1;jettySize=auto;html=1;exitX=1;exitY=0.25;exitDx=0;exitDy=0;entryX=0;entryY=0.25;entryDx=0;entryDy=0;strokeColor=#FF3333;fontColor=#A8A8A8;dashed=1;endFill=1;fillColor=#f5f5f5;endSize=4;strokeWidth=2;" parent="1" source="u1CNOt_KkvuoJOrz82CR-292" target="u1CNOt_KkvuoJOrz82CR-295" edge="1">
          <mxGeometry relative="1" as="geometry" />
        </mxCell>
        <mxCell id="u1CNOt_KkvuoJOrz82CR-292" value="Model" style="rounded=0;whiteSpace=wrap;html=1;fillColor=#f5f5f5;strokeColor=#FF3333;fontColor=#FF3333;fillOpacity=0;strokeWidth=2;flipH=1;" parent="1" vertex="1">
          <mxGeometry x="6570" y="296" width="110" height="30" as="geometry" />
        </mxCell>
        <mxCell id="u1CNOt_KkvuoJOrz82CR-293" style="edgeStyle=orthogonalEdgeStyle;rounded=0;orthogonalLoop=1;jettySize=auto;html=1;exitX=0;exitY=0.75;exitDx=0;exitDy=0;entryX=1;entryY=0.75;entryDx=0;entryDy=0;strokeColor=#FFD966;endSize=4;strokeWidth=2;" parent="1" source="u1CNOt_KkvuoJOrz82CR-295" target="u1CNOt_KkvuoJOrz82CR-292" edge="1">
          <mxGeometry relative="1" as="geometry" />
        </mxCell>
        <mxCell id="u1CNOt_KkvuoJOrz82CR-294" style="edgeStyle=orthogonalEdgeStyle;rounded=0;orthogonalLoop=1;jettySize=auto;html=1;exitX=1;exitY=0.75;exitDx=0;exitDy=0;entryX=0;entryY=0.75;entryDx=0;entryDy=0;strokeColor=#FFD966;endSize=4;strokeWidth=2;fontColor=#A8A8A8;dashed=1;endFill=1;fillColor=#f5f5f5;" parent="1" source="u1CNOt_KkvuoJOrz82CR-295" target="u1CNOt_KkvuoJOrz82CR-297" edge="1">
          <mxGeometry relative="1" as="geometry" />
        </mxCell>
        <mxCell id="u1CNOt_KkvuoJOrz82CR-295" value="ViewModel" style="rounded=0;whiteSpace=wrap;html=1;fillColor=none;strokeColor=#FFD966;fontColor=#FFD966;fillOpacity=0;strokeWidth=2;flipH=1;" parent="1" vertex="1">
          <mxGeometry x="6780" y="296" width="160" height="30" as="geometry" />
        </mxCell>
        <mxCell id="u1CNOt_KkvuoJOrz82CR-296" style="edgeStyle=orthogonalEdgeStyle;rounded=0;orthogonalLoop=1;jettySize=auto;html=1;exitX=0;exitY=0.25;exitDx=0;exitDy=0;entryX=1;entryY=0.25;entryDx=0;entryDy=0;strokeColor=#00FF00;fontColor=#A8A8A8;dashed=1;endFill=1;fillColor=#f5f5f5;endSize=4;strokeWidth=2;" parent="1" source="u1CNOt_KkvuoJOrz82CR-297" target="u1CNOt_KkvuoJOrz82CR-295" edge="1">
          <mxGeometry relative="1" as="geometry" />
        </mxCell>
        <mxCell id="u1CNOt_KkvuoJOrz82CR-297" value="View" style="rounded=0;whiteSpace=wrap;html=1;fillColor=none;strokeColor=#66FF66;fontColor=#00FF00;fillOpacity=0;strokeWidth=2;flipH=1;" parent="1" vertex="1">
          <mxGeometry x="7060" y="296" width="110" height="30" as="geometry" />
        </mxCell>
        <mxCell id="u1CNOt_KkvuoJOrz82CR-298" value="MVVM" style="text;html=1;strokeColor=none;fillColor=none;align=center;verticalAlign=middle;whiteSpace=wrap;rounded=0;fontSize=18;fontStyle=1;fontColor=#FF3333;" parent="1" vertex="1">
          <mxGeometry x="6440" y="296" width="100" height="30" as="geometry" />
        </mxCell>
        <mxCell id="u1CNOt_KkvuoJOrz82CR-299" value="observer/&lt;br&gt;callback" style="text;html=1;strokeColor=none;fillColor=none;align=center;verticalAlign=middle;whiteSpace=wrap;rounded=0;fontSize=8;fontColor=#FF3333;" parent="1" vertex="1">
          <mxGeometry x="6700" y="270" width="60" height="30" as="geometry" />
        </mxCell>
        <mxCell id="u1CNOt_KkvuoJOrz82CR-300" value="events" style="text;html=1;strokeColor=none;fillColor=none;align=center;verticalAlign=middle;whiteSpace=wrap;rounded=0;fontSize=8;fontColor=#00FF00;" parent="1" vertex="1">
          <mxGeometry x="6970" y="276.5" width="60" height="30" as="geometry" />
        </mxCell>
        <mxCell id="u1CNOt_KkvuoJOrz82CR-301" value="notify state changes" style="text;html=1;strokeColor=none;fillColor=none;align=center;verticalAlign=middle;whiteSpace=wrap;rounded=0;fontSize=8;fontColor=#FFD966;" parent="1" vertex="1">
          <mxGeometry x="6960" y="315.5" width="80" height="30" as="geometry" />
        </mxCell>
        <mxCell id="u1CNOt_KkvuoJOrz82CR-302" value="manages" style="text;html=1;strokeColor=none;fillColor=none;align=center;verticalAlign=middle;whiteSpace=wrap;rounded=0;fontSize=8;fontColor=#FFD966;" parent="1" vertex="1">
          <mxGeometry x="6700" y="313" width="60" height="30" as="geometry" />
        </mxCell>
        <mxCell id="u1CNOt_KkvuoJOrz82CR-306" style="edgeStyle=orthogonalEdgeStyle;rounded=0;orthogonalLoop=1;jettySize=auto;html=1;exitX=0.5;exitY=1;exitDx=0;exitDy=0;entryX=0.5;entryY=0;entryDx=0;entryDy=0;strokeColor=#B266FF;endSize=4;strokeWidth=2;" parent="1" source="u1CNOt_KkvuoJOrz82CR-303" target="u1CNOt_KkvuoJOrz82CR-295" edge="1">
          <mxGeometry relative="1" as="geometry">
            <Array as="points">
              <mxPoint x="6999" y="270" />
              <mxPoint x="6860" y="270" />
            </Array>
          </mxGeometry>
        </mxCell>
        <mxCell id="u1CNOt_KkvuoJOrz82CR-307" style="edgeStyle=orthogonalEdgeStyle;rounded=0;orthogonalLoop=1;jettySize=auto;html=1;exitX=0.5;exitY=1;exitDx=0;exitDy=0;entryX=0.5;entryY=0;entryDx=0;entryDy=0;strokeColor=#B266FF;endSize=4;strokeWidth=2;" parent="1" source="u1CNOt_KkvuoJOrz82CR-303" target="u1CNOt_KkvuoJOrz82CR-297" edge="1">
          <mxGeometry relative="1" as="geometry">
            <Array as="points">
              <mxPoint x="6999" y="270" />
              <mxPoint x="7115" y="270" />
            </Array>
          </mxGeometry>
        </mxCell>
        <mxCell id="u1CNOt_KkvuoJOrz82CR-303" value="Binder" style="rounded=0;whiteSpace=wrap;html=1;fillColor=none;strokeColor=#B266FF;fontColor=#B266FF;fillOpacity=0;strokeWidth=2;flipH=1;" parent="1" vertex="1">
          <mxGeometry x="6929" y="229" width="140" height="30" as="geometry" />
        </mxCell>
        <mxCell id="u1CNOt_KkvuoJOrz82CR-304" value="binds" style="text;html=1;strokeColor=none;fillColor=none;align=center;verticalAlign=middle;whiteSpace=wrap;rounded=0;fontSize=8;fontColor=#B266FF;" parent="1" vertex="1">
          <mxGeometry x="6970" y="262" width="60" height="30" as="geometry" />
        </mxCell>
        <mxCell id="u1CNOt_KkvuoJOrz82CR-308" style="edgeStyle=orthogonalEdgeStyle;rounded=0;orthogonalLoop=1;jettySize=auto;html=1;exitX=1;exitY=0.25;exitDx=0;exitDy=0;entryX=0;entryY=0.25;entryDx=0;entryDy=0;strokeColor=#FF3333;fontColor=#A8A8A8;dashed=1;endFill=1;fillColor=#f5f5f5;endSize=4;strokeWidth=2;" parent="1" source="u1CNOt_KkvuoJOrz82CR-309" target="u1CNOt_KkvuoJOrz82CR-312" edge="1">
          <mxGeometry relative="1" as="geometry" />
        </mxCell>
        <mxCell id="u1CNOt_KkvuoJOrz82CR-309" value="Model" style="rounded=0;whiteSpace=wrap;html=1;fillColor=#f5f5f5;strokeColor=#FF3333;fontColor=#FF3333;fillOpacity=0;strokeWidth=2;flipH=1;" parent="1" vertex="1">
          <mxGeometry x="6570" y="426" width="110" height="30" as="geometry" />
        </mxCell>
        <mxCell id="u1CNOt_KkvuoJOrz82CR-310" style="edgeStyle=orthogonalEdgeStyle;rounded=0;orthogonalLoop=1;jettySize=auto;html=1;exitX=0;exitY=0.75;exitDx=0;exitDy=0;entryX=1;entryY=0.75;entryDx=0;entryDy=0;strokeColor=#007FFF;endSize=4;strokeWidth=2;" parent="1" source="u1CNOt_KkvuoJOrz82CR-312" target="u1CNOt_KkvuoJOrz82CR-309" edge="1">
          <mxGeometry relative="1" as="geometry" />
        </mxCell>
        <mxCell id="u1CNOt_KkvuoJOrz82CR-322" style="edgeStyle=orthogonalEdgeStyle;rounded=0;orthogonalLoop=1;jettySize=auto;html=1;exitX=1;exitY=0.75;exitDx=0;exitDy=0;entryX=0;entryY=0.25;entryDx=0;entryDy=0;strokeColor=#007FFF;endSize=4;strokeWidth=2;" parent="1" source="u1CNOt_KkvuoJOrz82CR-312" target="u1CNOt_KkvuoJOrz82CR-320" edge="1">
          <mxGeometry relative="1" as="geometry" />
        </mxCell>
        <mxCell id="u1CNOt_KkvuoJOrz82CR-312" value="Presenter" style="rounded=0;whiteSpace=wrap;html=1;fillColor=#f5f5f5;strokeColor=#007FFF;fontColor=#007FFF;fillOpacity=0;strokeWidth=2;flipH=1;" parent="1" vertex="1">
          <mxGeometry x="6780" y="426" width="90" height="30" as="geometry" />
        </mxCell>
        <mxCell id="u1CNOt_KkvuoJOrz82CR-313" style="edgeStyle=orthogonalEdgeStyle;rounded=0;orthogonalLoop=1;jettySize=auto;html=1;exitX=0;exitY=0.25;exitDx=0;exitDy=0;entryX=1;entryY=0.25;entryDx=0;entryDy=0;strokeColor=#00FF00;fontColor=#A8A8A8;dashed=1;endFill=1;fillColor=#f5f5f5;endSize=4;strokeWidth=2;" parent="1" source="u1CNOt_KkvuoJOrz82CR-314" target="u1CNOt_KkvuoJOrz82CR-312" edge="1">
          <mxGeometry relative="1" as="geometry" />
        </mxCell>
        <mxCell id="u1CNOt_KkvuoJOrz82CR-323" style="edgeStyle=orthogonalEdgeStyle;rounded=0;orthogonalLoop=1;jettySize=auto;html=1;exitX=0;exitY=0.75;exitDx=0;exitDy=0;entryX=1;entryY=0.25;entryDx=0;entryDy=0;endArrow=block;strokeColor=#00FF00;fontColor=#FF0080;endSize=4;strokeWidth=2;endFill=0;dashed=1;fillColor=#f5f5f5;" parent="1" source="u1CNOt_KkvuoJOrz82CR-314" target="u1CNOt_KkvuoJOrz82CR-320" edge="1">
          <mxGeometry relative="1" as="geometry" />
        </mxCell>
        <mxCell id="u1CNOt_KkvuoJOrz82CR-314" value="View" style="rounded=0;whiteSpace=wrap;html=1;fillColor=none;strokeColor=#66FF66;fontColor=#00FF00;fillOpacity=0;strokeWidth=2;flipH=1;" parent="1" vertex="1">
          <mxGeometry x="7069" y="426" width="110" height="30" as="geometry" />
        </mxCell>
        <mxCell id="u1CNOt_KkvuoJOrz82CR-315" value="MVP" style="text;html=1;strokeColor=none;fillColor=none;align=center;verticalAlign=middle;whiteSpace=wrap;rounded=0;fontSize=18;fontStyle=1;fontColor=#FF3333;" parent="1" vertex="1">
          <mxGeometry x="6440" y="426" width="100" height="30" as="geometry" />
        </mxCell>
        <mxCell id="u1CNOt_KkvuoJOrz82CR-316" value="observer/&lt;br&gt;callback" style="text;html=1;strokeColor=none;fillColor=none;align=center;verticalAlign=middle;whiteSpace=wrap;rounded=0;fontSize=8;fontColor=#FF3333;" parent="1" vertex="1">
          <mxGeometry x="6700" y="400" width="60" height="30" as="geometry" />
        </mxCell>
        <mxCell id="u1CNOt_KkvuoJOrz82CR-317" value="events" style="text;html=1;strokeColor=none;fillColor=none;align=center;verticalAlign=middle;whiteSpace=wrap;rounded=0;fontSize=8;fontColor=#00FF00;" parent="1" vertex="1">
          <mxGeometry x="6940" y="403" width="60" height="30" as="geometry" />
        </mxCell>
        <mxCell id="u1CNOt_KkvuoJOrz82CR-319" value="manages" style="text;html=1;strokeColor=none;fillColor=none;align=center;verticalAlign=middle;whiteSpace=wrap;rounded=0;fontSize=8;fontColor=#007FFF;" parent="1" vertex="1">
          <mxGeometry x="6700" y="443" width="60" height="30" as="geometry" />
        </mxCell>
        <mxCell id="u1CNOt_KkvuoJOrz82CR-324" value="updates" style="text;html=1;strokeColor=none;fillColor=none;align=center;verticalAlign=middle;whiteSpace=wrap;rounded=0;fontSize=8;fontColor=#007FFF;" parent="1" vertex="1">
          <mxGeometry x="6862" y="443" width="60" height="30" as="geometry" />
        </mxCell>
        <mxCell id="u1CNOt_KkvuoJOrz82CR-328" style="edgeStyle=orthogonalEdgeStyle;rounded=0;orthogonalLoop=1;jettySize=auto;html=1;exitX=0;exitY=0.75;exitDx=0;exitDy=0;entryX=1;entryY=0.75;entryDx=0;entryDy=0;strokeColor=#007FFF;endSize=4;strokeWidth=2;" parent="1" source="u1CNOt_KkvuoJOrz82CR-329" target="u1CNOt_KkvuoJOrz82CR-333" edge="1">
          <mxGeometry relative="1" as="geometry" />
        </mxCell>
        <mxCell id="u1CNOt_KkvuoJOrz82CR-350" style="edgeStyle=orthogonalEdgeStyle;rounded=0;orthogonalLoop=1;jettySize=auto;html=1;exitX=1;exitY=0.5;exitDx=0;exitDy=0;entryX=0;entryY=0.5;entryDx=0;entryDy=0;strokeColor=#007FFF;endSize=4;strokeWidth=2;" parent="1" source="u1CNOt_KkvuoJOrz82CR-329" target="u1CNOt_KkvuoJOrz82CR-349" edge="1">
          <mxGeometry relative="1" as="geometry">
            <Array as="points">
              <mxPoint x="5700" y="259" />
              <mxPoint x="5700" y="259" />
            </Array>
          </mxGeometry>
        </mxCell>
        <mxCell id="u1CNOt_KkvuoJOrz82CR-355" style="edgeStyle=orthogonalEdgeStyle;rounded=0;orthogonalLoop=1;jettySize=auto;html=1;exitX=0.5;exitY=0;exitDx=0;exitDy=0;entryX=0;entryY=0.5;entryDx=0;entryDy=0;strokeColor=#007FFF;fontColor=#A8A8A8;dashed=1;endFill=1;fillColor=#f5f5f5;endSize=4;strokeWidth=2;" parent="1" source="u1CNOt_KkvuoJOrz82CR-329" target="u1CNOt_KkvuoJOrz82CR-352" edge="1">
          <mxGeometry relative="1" as="geometry" />
        </mxCell>
        <mxCell id="u1CNOt_KkvuoJOrz82CR-329" value="FeedPresenter" style="rounded=0;whiteSpace=wrap;html=1;fillColor=none;strokeColor=#007FFF;fontColor=#007FFF;fillOpacity=0;strokeWidth=2;flipH=1;" parent="1" vertex="1">
          <mxGeometry x="5558.5" y="243.5" width="121.5" height="30" as="geometry" />
        </mxCell>
        <mxCell id="u1CNOt_KkvuoJOrz82CR-351" style="edgeStyle=orthogonalEdgeStyle;rounded=0;orthogonalLoop=1;jettySize=auto;html=1;exitX=0;exitY=0.5;exitDx=0;exitDy=0;entryX=1;entryY=0.5;entryDx=0;entryDy=0;endArrow=block;strokeColor=#00FF00;fontColor=#FF0080;endSize=4;strokeWidth=2;endFill=0;dashed=1;fillColor=#f5f5f5;" parent="1" source="u1CNOt_KkvuoJOrz82CR-331" target="u1CNOt_KkvuoJOrz82CR-349" edge="1">
          <mxGeometry relative="1" as="geometry" />
        </mxCell>
        <mxCell id="u1CNOt_KkvuoJOrz82CR-358" style="edgeStyle=orthogonalEdgeStyle;rounded=0;orthogonalLoop=1;jettySize=auto;html=1;exitX=0.5;exitY=1;exitDx=0;exitDy=0;entryX=0.5;entryY=1;entryDx=0;entryDy=0;strokeColor=#00FF00;endSize=4;strokeWidth=2;" parent="1" source="u1CNOt_KkvuoJOrz82CR-331" target="u1CNOt_KkvuoJOrz82CR-329" edge="1">
          <mxGeometry relative="1" as="geometry">
            <Array as="points">
              <mxPoint x="6069" y="330" />
              <mxPoint x="5619" y="330" />
            </Array>
          </mxGeometry>
        </mxCell>
        <mxCell id="u1CNOt_KkvuoJOrz82CR-361" style="edgeStyle=orthogonalEdgeStyle;rounded=0;orthogonalLoop=1;jettySize=auto;html=1;exitX=0.5;exitY=0;exitDx=0;exitDy=0;entryX=1;entryY=0.5;entryDx=0;entryDy=0;strokeColor=#00FF00;endSize=4;strokeWidth=2;" parent="1" source="u1CNOt_KkvuoJOrz82CR-331" target="u1CNOt_KkvuoJOrz82CR-352" edge="1">
          <mxGeometry relative="1" as="geometry" />
        </mxCell>
        <mxCell id="u1CNOt_KkvuoJOrz82CR-364" style="edgeStyle=orthogonalEdgeStyle;rounded=0;orthogonalLoop=1;jettySize=auto;html=1;exitX=1;exitY=0.75;exitDx=0;exitDy=0;entryX=0;entryY=0.75;entryDx=0;entryDy=0;strokeColor=#00FF00;endSize=4;strokeWidth=2;" parent="1" source="u1CNOt_KkvuoJOrz82CR-331" target="u1CNOt_KkvuoJOrz82CR-362" edge="1">
          <mxGeometry relative="1" as="geometry" />
        </mxCell>
        <mxCell id="u1CNOt_KkvuoJOrz82CR-331" value="FeedRefreshViewController" style="rounded=0;whiteSpace=wrap;html=1;fillColor=none;strokeColor=#66FF66;fontColor=#00FF00;fillOpacity=0;strokeWidth=2;flipH=1;" parent="1" vertex="1">
          <mxGeometry x="5980" y="244" width="178" height="30" as="geometry" />
        </mxCell>
        <mxCell id="u1CNOt_KkvuoJOrz82CR-332" style="edgeStyle=orthogonalEdgeStyle;rounded=0;orthogonalLoop=1;jettySize=auto;html=1;exitX=1;exitY=0.25;exitDx=0;exitDy=0;entryX=0;entryY=0.25;entryDx=0;entryDy=0;strokeColor=#FF3333;fontColor=#A8A8A8;dashed=1;endFill=1;fillColor=#f5f5f5;endSize=4;strokeWidth=2;" parent="1" source="u1CNOt_KkvuoJOrz82CR-333" target="u1CNOt_KkvuoJOrz82CR-329" edge="1">
          <mxGeometry relative="1" as="geometry" />
        </mxCell>
        <mxCell id="u1CNOt_KkvuoJOrz82CR-333" value="&amp;lt;FeedLoader&amp;gt;" style="rounded=0;whiteSpace=wrap;html=1;fillColor=#f5f5f5;strokeColor=#FF3333;fontColor=#FF3333;fillOpacity=0;strokeWidth=2;flipH=1;" parent="1" vertex="1">
          <mxGeometry x="5340" y="244" width="94" height="30" as="geometry" />
        </mxCell>
        <mxCell id="u1CNOt_KkvuoJOrz82CR-334" value="completion&lt;br style=&quot;font-size: 8px;&quot;&gt;callback" style="text;html=1;strokeColor=none;fillColor=none;align=center;verticalAlign=middle;whiteSpace=wrap;rounded=0;fontSize=8;fontColor=#FF3333;" parent="1" vertex="1">
          <mxGeometry x="5456" y="223" width="60" height="30" as="geometry" />
        </mxCell>
        <mxCell id="u1CNOt_KkvuoJOrz82CR-335" value="State&lt;br&gt;isLoading: Bool" style="text;html=1;strokeColor=none;fillColor=none;align=center;verticalAlign=middle;whiteSpace=wrap;rounded=0;fontSize=8;fontColor=#FF3333;" parent="1" vertex="1">
          <mxGeometry x="5354" y="214" width="60" height="30" as="geometry" />
        </mxCell>
        <mxCell id="u1CNOt_KkvuoJOrz82CR-338" value="manages" style="text;html=1;strokeColor=none;fillColor=none;align=center;verticalAlign=middle;whiteSpace=wrap;rounded=0;fontSize=8;fontColor=#007FFF;" parent="1" vertex="1">
          <mxGeometry x="5456" y="260" width="60" height="30" as="geometry" />
        </mxCell>
        <mxCell id="u1CNOt_KkvuoJOrz82CR-339" value="Model" style="text;html=1;strokeColor=none;fillColor=none;align=center;verticalAlign=middle;whiteSpace=wrap;rounded=0;fontSize=12;fontColor=#FF3333;" parent="1" vertex="1">
          <mxGeometry x="5357" y="97" width="60" height="30" as="geometry" />
        </mxCell>
        <mxCell id="u1CNOt_KkvuoJOrz82CR-340" value="Presenter" style="text;html=1;strokeColor=none;fillColor=none;align=center;verticalAlign=middle;whiteSpace=wrap;rounded=0;fontSize=12;fontColor=#007FFF;" parent="1" vertex="1">
          <mxGeometry x="5740" y="97" width="95" height="30" as="geometry" />
        </mxCell>
        <mxCell id="u1CNOt_KkvuoJOrz82CR-341" value="View" style="text;html=1;strokeColor=none;fillColor=none;align=center;verticalAlign=middle;whiteSpace=wrap;rounded=0;fontSize=12;fontColor=#00FF00;" parent="1" vertex="1">
          <mxGeometry x="6130" y="97" width="60" height="30" as="geometry" />
        </mxCell>
        <mxCell id="u1CNOt_KkvuoJOrz82CR-347" value="MVP" style="text;html=1;strokeColor=none;fillColor=none;align=center;verticalAlign=middle;whiteSpace=wrap;rounded=0;fontSize=22;fontStyle=1" parent="1" vertex="1">
          <mxGeometry x="5765" y="45" width="100" height="30" as="geometry" />
        </mxCell>
        <mxCell id="u1CNOt_KkvuoJOrz82CR-348" value="" style="endArrow=classic;html=1;rounded=0;strokeColor=#00FF00;endSize=4;strokeWidth=2;" parent="1" edge="1">
          <mxGeometry width="50" height="50" relative="1" as="geometry">
            <mxPoint x="6110" y="112" as="sourcePoint" />
            <mxPoint x="5845" y="111.58" as="targetPoint" />
          </mxGeometry>
        </mxCell>
        <mxCell id="u1CNOt_KkvuoJOrz82CR-356" style="edgeStyle=orthogonalEdgeStyle;rounded=0;orthogonalLoop=1;jettySize=auto;html=1;exitX=0.5;exitY=0;exitDx=0;exitDy=0;entryX=0.5;entryY=1;entryDx=0;entryDy=0;strokeColor=#007FFF;endSize=4;strokeWidth=2;" parent="1" source="u1CNOt_KkvuoJOrz82CR-349" target="u1CNOt_KkvuoJOrz82CR-352" edge="1">
          <mxGeometry relative="1" as="geometry" />
        </mxCell>
        <mxCell id="u1CNOt_KkvuoJOrz82CR-349" value="&amp;lt;FeedLoadingView&amp;gt;&lt;br&gt;&lt;br&gt;func display(FeedLoadingViewModel)" style="rounded=0;whiteSpace=wrap;html=1;fillColor=none;strokeColor=#007FFF;fontColor=#007FFF;fillOpacity=0;strokeWidth=2;flipH=1;" parent="1" vertex="1">
          <mxGeometry x="5730" y="228.5" width="210" height="60" as="geometry" />
        </mxCell>
        <mxCell id="u1CNOt_KkvuoJOrz82CR-352" value="FeedLoadingViewModel&lt;br&gt;let isLoading: Bool" style="rounded=0;whiteSpace=wrap;html=1;fillColor=none;strokeColor=#007FFF;fontColor=#007FFF;fillOpacity=0;strokeWidth=2;flipH=1;" parent="1" vertex="1">
          <mxGeometry x="5760" y="150" width="150" height="53" as="geometry" />
        </mxCell>
        <mxCell id="u1CNOt_KkvuoJOrz82CR-353" value="" style="endArrow=classic;html=1;rounded=0;strokeColor=#007FFF;endSize=4;strokeWidth=2;" parent="1" edge="1">
          <mxGeometry width="50" height="50" relative="1" as="geometry">
            <mxPoint x="5720" y="111" as="sourcePoint" />
            <mxPoint x="5450" y="111.58" as="targetPoint" />
          </mxGeometry>
        </mxCell>
        <mxCell id="u1CNOt_KkvuoJOrz82CR-354" value="updates" style="text;html=1;strokeColor=none;fillColor=none;align=center;verticalAlign=middle;whiteSpace=wrap;rounded=0;fontSize=8;fontColor=#007FFF;" parent="1" vertex="1">
          <mxGeometry x="5673" y="255" width="60" height="30" as="geometry" />
        </mxCell>
        <mxCell id="u1CNOt_KkvuoJOrz82CR-357" value="creates" style="text;html=1;strokeColor=none;fillColor=none;align=center;verticalAlign=middle;whiteSpace=wrap;rounded=0;fontSize=8;fontColor=#007FFF;" parent="1" vertex="1">
          <mxGeometry x="5660" y="146" width="60" height="30" as="geometry" />
        </mxCell>
        <mxCell id="u1CNOt_KkvuoJOrz82CR-359" value="events" style="text;html=1;strokeColor=none;fillColor=none;align=center;verticalAlign=middle;whiteSpace=wrap;rounded=0;fontSize=8;fontColor=#00FF00;" parent="1" vertex="1">
          <mxGeometry x="5805" y="326" width="60" height="30" as="geometry" />
        </mxCell>
        <mxCell id="u1CNOt_KkvuoJOrz82CR-360" value="&amp;lt;DS&amp;gt;" style="text;html=1;strokeColor=none;fillColor=none;align=center;verticalAlign=middle;whiteSpace=wrap;rounded=0;fontSize=8;fontColor=#007FFF;" parent="1" vertex="1">
          <mxGeometry x="5880" y="151" width="30" height="10" as="geometry" />
        </mxCell>
        <mxCell id="u1CNOt_KkvuoJOrz82CR-365" style="edgeStyle=orthogonalEdgeStyle;rounded=0;orthogonalLoop=1;jettySize=auto;html=1;exitX=0;exitY=0.25;exitDx=0;exitDy=0;entryX=1;entryY=0.25;entryDx=0;entryDy=0;strokeColor=#00FF00;fontColor=#A8A8A8;dashed=1;endFill=1;fillColor=#f5f5f5;endSize=4;strokeWidth=2;" parent="1" source="u1CNOt_KkvuoJOrz82CR-362" target="u1CNOt_KkvuoJOrz82CR-331" edge="1">
          <mxGeometry relative="1" as="geometry" />
        </mxCell>
        <mxCell id="u1CNOt_KkvuoJOrz82CR-362" value="UIRefreshControl" style="rounded=0;whiteSpace=wrap;html=1;fillColor=none;strokeColor=#66FF66;fontColor=#00FF00;fillOpacity=0;strokeWidth=2;flipH=1;" parent="1" vertex="1">
          <mxGeometry x="6220" y="244" width="120" height="30" as="geometry" />
        </mxCell>
        <mxCell id="u1CNOt_KkvuoJOrz82CR-366" value="events" style="text;html=1;strokeColor=none;fillColor=none;align=center;verticalAlign=middle;whiteSpace=wrap;rounded=0;fontSize=8;fontColor=#00FF00;" parent="1" vertex="1">
          <mxGeometry x="6160" y="227.5" width="60" height="30" as="geometry" />
        </mxCell>
        <mxCell id="u1CNOt_KkvuoJOrz82CR-367" value="updates" style="text;html=1;strokeColor=none;fillColor=none;align=center;verticalAlign=middle;whiteSpace=wrap;rounded=0;fontSize=8;fontColor=#00FF00;" parent="1" vertex="1">
          <mxGeometry x="6158" y="259" width="60" height="30" as="geometry" />
        </mxCell>
        <mxCell id="OO4XubUByGKpNcj5XbLT-1" style="edgeStyle=orthogonalEdgeStyle;rounded=0;orthogonalLoop=1;jettySize=auto;html=1;exitX=0;exitY=0.75;exitDx=0;exitDy=0;entryX=1;entryY=0.75;entryDx=0;entryDy=0;strokeColor=#007FFF;endSize=4;strokeWidth=2;" edge="1" source="OO4XubUByGKpNcj5XbLT-4" target="OO4XubUByGKpNcj5XbLT-11" parent="1">
          <mxGeometry relative="1" as="geometry" />
        </mxCell>
        <mxCell id="OO4XubUByGKpNcj5XbLT-2" style="edgeStyle=orthogonalEdgeStyle;rounded=0;orthogonalLoop=1;jettySize=auto;html=1;exitX=1;exitY=0.5;exitDx=0;exitDy=0;entryX=0;entryY=0.5;entryDx=0;entryDy=0;strokeColor=#007FFF;endSize=4;strokeWidth=2;" edge="1" source="OO4XubUByGKpNcj5XbLT-4" target="OO4XubUByGKpNcj5XbLT-20" parent="1">
          <mxGeometry relative="1" as="geometry">
            <Array as="points">
              <mxPoint x="5700" y="622" />
              <mxPoint x="5700" y="622" />
            </Array>
          </mxGeometry>
        </mxCell>
        <mxCell id="OO4XubUByGKpNcj5XbLT-3" style="edgeStyle=orthogonalEdgeStyle;rounded=0;orthogonalLoop=1;jettySize=auto;html=1;exitX=0.5;exitY=0;exitDx=0;exitDy=0;entryX=0;entryY=0.5;entryDx=0;entryDy=0;strokeColor=#007FFF;fontColor=#A8A8A8;dashed=1;endFill=1;fillColor=#f5f5f5;endSize=4;strokeWidth=2;" edge="1" source="OO4XubUByGKpNcj5XbLT-4" target="OO4XubUByGKpNcj5XbLT-21" parent="1">
          <mxGeometry relative="1" as="geometry" />
        </mxCell>
        <mxCell id="OO4XubUByGKpNcj5XbLT-4" value="FeedPresenter" style="rounded=0;whiteSpace=wrap;html=1;fillColor=none;strokeColor=#007FFF;fontColor=#007FFF;fillOpacity=0;strokeWidth=2;flipH=1;" vertex="1" parent="1">
          <mxGeometry x="5558.5" y="606.5" width="121.5" height="30" as="geometry" />
        </mxCell>
        <mxCell id="OO4XubUByGKpNcj5XbLT-5" style="edgeStyle=orthogonalEdgeStyle;rounded=0;orthogonalLoop=1;jettySize=auto;html=1;exitX=0;exitY=0.5;exitDx=0;exitDy=0;entryX=1;entryY=0.5;entryDx=0;entryDy=0;endArrow=block;strokeColor=#00FF00;fontColor=#FF0080;endSize=4;strokeWidth=2;endFill=0;dashed=1;fillColor=#f5f5f5;" edge="1" source="OO4XubUByGKpNcj5XbLT-9" target="OO4XubUByGKpNcj5XbLT-20" parent="1">
          <mxGeometry relative="1" as="geometry" />
        </mxCell>
        <mxCell id="OO4XubUByGKpNcj5XbLT-6" style="edgeStyle=orthogonalEdgeStyle;rounded=0;orthogonalLoop=1;jettySize=auto;html=1;exitX=0.5;exitY=1;exitDx=0;exitDy=0;entryX=0.5;entryY=1;entryDx=0;entryDy=0;strokeColor=#00FF00;endSize=4;strokeWidth=2;dashed=1;" edge="1" source="OO4XubUByGKpNcj5XbLT-9" target="OO4XubUByGKpNcj5XbLT-4" parent="1">
          <mxGeometry relative="1" as="geometry">
            <Array as="points">
              <mxPoint x="6069" y="693" />
              <mxPoint x="5619" y="693" />
            </Array>
          </mxGeometry>
        </mxCell>
        <mxCell id="OO4XubUByGKpNcj5XbLT-7" style="edgeStyle=orthogonalEdgeStyle;rounded=0;orthogonalLoop=1;jettySize=auto;html=1;exitX=0.5;exitY=0;exitDx=0;exitDy=0;entryX=1;entryY=0.5;entryDx=0;entryDy=0;strokeColor=#00FF00;endSize=4;strokeWidth=2;" edge="1" source="OO4XubUByGKpNcj5XbLT-9" target="OO4XubUByGKpNcj5XbLT-21" parent="1">
          <mxGeometry relative="1" as="geometry" />
        </mxCell>
        <mxCell id="OO4XubUByGKpNcj5XbLT-8" style="edgeStyle=orthogonalEdgeStyle;rounded=0;orthogonalLoop=1;jettySize=auto;html=1;exitX=1;exitY=0.75;exitDx=0;exitDy=0;entryX=0;entryY=0.75;entryDx=0;entryDy=0;strokeColor=#00FF00;endSize=4;strokeWidth=2;" edge="1" source="OO4XubUByGKpNcj5XbLT-9" target="OO4XubUByGKpNcj5XbLT-28" parent="1">
          <mxGeometry relative="1" as="geometry" />
        </mxCell>
        <mxCell id="OO4XubUByGKpNcj5XbLT-9" value="FeedRefreshViewController" style="rounded=0;whiteSpace=wrap;html=1;fillColor=none;strokeColor=#66FF66;fontColor=#00FF00;fillOpacity=0;strokeWidth=2;flipH=1;" vertex="1" parent="1">
          <mxGeometry x="5980" y="607" width="178" height="30" as="geometry" />
        </mxCell>
        <mxCell id="OO4XubUByGKpNcj5XbLT-10" style="edgeStyle=orthogonalEdgeStyle;rounded=0;orthogonalLoop=1;jettySize=auto;html=1;exitX=1;exitY=0.25;exitDx=0;exitDy=0;entryX=0;entryY=0.25;entryDx=0;entryDy=0;strokeColor=#FF3333;fontColor=#A8A8A8;dashed=1;endFill=1;fillColor=#f5f5f5;endSize=4;strokeWidth=2;" edge="1" source="OO4XubUByGKpNcj5XbLT-11" target="OO4XubUByGKpNcj5XbLT-4" parent="1">
          <mxGeometry relative="1" as="geometry" />
        </mxCell>
        <mxCell id="OO4XubUByGKpNcj5XbLT-11" value="&amp;lt;FeedLoader&amp;gt;" style="rounded=0;whiteSpace=wrap;html=1;fillColor=#f5f5f5;strokeColor=#FF3333;fontColor=#FF3333;fillOpacity=0;strokeWidth=2;flipH=1;" vertex="1" parent="1">
          <mxGeometry x="5340" y="607" width="94" height="30" as="geometry" />
        </mxCell>
        <mxCell id="OO4XubUByGKpNcj5XbLT-12" value="completion&lt;br style=&quot;font-size: 8px;&quot;&gt;callback" style="text;html=1;strokeColor=none;fillColor=none;align=center;verticalAlign=middle;whiteSpace=wrap;rounded=0;fontSize=8;fontColor=#FF3333;" vertex="1" parent="1">
          <mxGeometry x="5456" y="586" width="60" height="30" as="geometry" />
        </mxCell>
        <mxCell id="OO4XubUByGKpNcj5XbLT-13" value="State&lt;br&gt;isLoading: Bool" style="text;html=1;strokeColor=none;fillColor=none;align=center;verticalAlign=middle;whiteSpace=wrap;rounded=0;fontSize=8;fontColor=#FF3333;" vertex="1" parent="1">
          <mxGeometry x="5354" y="577" width="60" height="30" as="geometry" />
        </mxCell>
        <mxCell id="OO4XubUByGKpNcj5XbLT-14" value="manages" style="text;html=1;strokeColor=none;fillColor=none;align=center;verticalAlign=middle;whiteSpace=wrap;rounded=0;fontSize=8;fontColor=#007FFF;" vertex="1" parent="1">
          <mxGeometry x="5456" y="623" width="60" height="30" as="geometry" />
        </mxCell>
        <mxCell id="OO4XubUByGKpNcj5XbLT-15" value="Model" style="text;html=1;strokeColor=none;fillColor=none;align=center;verticalAlign=middle;whiteSpace=wrap;rounded=0;fontSize=12;fontColor=#FF3333;" vertex="1" parent="1">
          <mxGeometry x="5357" y="460" width="60" height="30" as="geometry" />
        </mxCell>
        <mxCell id="OO4XubUByGKpNcj5XbLT-16" value="Presenter" style="text;html=1;strokeColor=none;fillColor=none;align=center;verticalAlign=middle;whiteSpace=wrap;rounded=0;fontSize=12;fontColor=#007FFF;" vertex="1" parent="1">
          <mxGeometry x="5740" y="460" width="95" height="30" as="geometry" />
        </mxCell>
        <mxCell id="OO4XubUByGKpNcj5XbLT-17" value="View" style="text;html=1;strokeColor=none;fillColor=none;align=center;verticalAlign=middle;whiteSpace=wrap;rounded=0;fontSize=12;fontColor=#00FF00;" vertex="1" parent="1">
          <mxGeometry x="6130" y="460" width="60" height="30" as="geometry" />
        </mxCell>
        <mxCell id="OO4XubUByGKpNcj5XbLT-18" value="" style="endArrow=classic;html=1;rounded=0;strokeColor=#00FF00;endSize=4;strokeWidth=2;" edge="1" parent="1">
          <mxGeometry width="50" height="50" relative="1" as="geometry">
            <mxPoint x="6110" y="475" as="sourcePoint" />
            <mxPoint x="5845" y="474.58" as="targetPoint" />
          </mxGeometry>
        </mxCell>
        <mxCell id="OO4XubUByGKpNcj5XbLT-19" style="edgeStyle=orthogonalEdgeStyle;rounded=0;orthogonalLoop=1;jettySize=auto;html=1;exitX=0.5;exitY=0;exitDx=0;exitDy=0;entryX=0.5;entryY=1;entryDx=0;entryDy=0;strokeColor=#007FFF;endSize=4;strokeWidth=2;" edge="1" source="OO4XubUByGKpNcj5XbLT-20" target="OO4XubUByGKpNcj5XbLT-21" parent="1">
          <mxGeometry relative="1" as="geometry" />
        </mxCell>
        <mxCell id="OO4XubUByGKpNcj5XbLT-20" value="&amp;lt;FeedLoadingView&amp;gt;" style="rounded=0;whiteSpace=wrap;html=1;fillColor=none;strokeColor=#007FFF;fontColor=#007FFF;fillOpacity=0;strokeWidth=2;flipH=1;" vertex="1" parent="1">
          <mxGeometry x="5730" y="600" width="210" height="43" as="geometry" />
        </mxCell>
        <mxCell id="OO4XubUByGKpNcj5XbLT-21" value="FeedLoadingViewModel" style="rounded=0;whiteSpace=wrap;html=1;fillColor=none;strokeColor=#007FFF;fontColor=#007FFF;fillOpacity=0;strokeWidth=2;flipH=1;" vertex="1" parent="1">
          <mxGeometry x="5760" y="520" width="150" height="39" as="geometry" />
        </mxCell>
        <mxCell id="OO4XubUByGKpNcj5XbLT-22" value="" style="endArrow=classic;html=1;rounded=0;strokeColor=#007FFF;endSize=4;strokeWidth=2;" edge="1" parent="1">
          <mxGeometry width="50" height="50" relative="1" as="geometry">
            <mxPoint x="5720" y="474" as="sourcePoint" />
            <mxPoint x="5450" y="474.58" as="targetPoint" />
          </mxGeometry>
        </mxCell>
        <mxCell id="OO4XubUByGKpNcj5XbLT-23" value="updates" style="text;html=1;strokeColor=none;fillColor=none;align=center;verticalAlign=middle;whiteSpace=wrap;rounded=0;fontSize=8;fontColor=#007FFF;" vertex="1" parent="1">
          <mxGeometry x="5673" y="618" width="60" height="30" as="geometry" />
        </mxCell>
        <mxCell id="OO4XubUByGKpNcj5XbLT-24" value="creates" style="text;html=1;strokeColor=none;fillColor=none;align=center;verticalAlign=middle;whiteSpace=wrap;rounded=0;fontSize=8;fontColor=#007FFF;" vertex="1" parent="1">
          <mxGeometry x="5660" y="509" width="60" height="30" as="geometry" />
        </mxCell>
        <mxCell id="OO4XubUByGKpNcj5XbLT-25" value="events &lt;br&gt;(using closures)" style="text;html=1;strokeColor=none;fillColor=none;align=center;verticalAlign=middle;whiteSpace=wrap;rounded=0;fontSize=8;fontColor=#00FF00;" vertex="1" parent="1">
          <mxGeometry x="5805" y="691" width="60" height="30" as="geometry" />
        </mxCell>
        <mxCell id="OO4XubUByGKpNcj5XbLT-26" value="&amp;lt;DS&amp;gt;" style="text;html=1;strokeColor=none;fillColor=none;align=center;verticalAlign=middle;whiteSpace=wrap;rounded=0;fontSize=8;fontColor=#007FFF;" vertex="1" parent="1">
          <mxGeometry x="5880" y="521" width="30" height="10" as="geometry" />
        </mxCell>
        <mxCell id="OO4XubUByGKpNcj5XbLT-27" style="edgeStyle=orthogonalEdgeStyle;rounded=0;orthogonalLoop=1;jettySize=auto;html=1;exitX=0;exitY=0.25;exitDx=0;exitDy=0;entryX=1;entryY=0.25;entryDx=0;entryDy=0;strokeColor=#00FF00;fontColor=#A8A8A8;dashed=1;endFill=1;fillColor=#f5f5f5;endSize=4;strokeWidth=2;" edge="1" source="OO4XubUByGKpNcj5XbLT-28" target="OO4XubUByGKpNcj5XbLT-9" parent="1">
          <mxGeometry relative="1" as="geometry" />
        </mxCell>
        <mxCell id="OO4XubUByGKpNcj5XbLT-28" value="UIRefreshControl" style="rounded=0;whiteSpace=wrap;html=1;fillColor=none;strokeColor=#66FF66;fontColor=#00FF00;fillOpacity=0;strokeWidth=2;flipH=1;" vertex="1" parent="1">
          <mxGeometry x="6220" y="607" width="120" height="30" as="geometry" />
        </mxCell>
        <mxCell id="OO4XubUByGKpNcj5XbLT-29" value="events" style="text;html=1;strokeColor=none;fillColor=none;align=center;verticalAlign=middle;whiteSpace=wrap;rounded=0;fontSize=8;fontColor=#00FF00;" vertex="1" parent="1">
          <mxGeometry x="6160" y="590.5" width="60" height="30" as="geometry" />
        </mxCell>
        <mxCell id="OO4XubUByGKpNcj5XbLT-30" value="updates" style="text;html=1;strokeColor=none;fillColor=none;align=center;verticalAlign=middle;whiteSpace=wrap;rounded=0;fontSize=8;fontColor=#00FF00;" vertex="1" parent="1">
          <mxGeometry x="6158" y="622" width="60" height="30" as="geometry" />
        </mxCell>
        <mxCell id="OO4XubUByGKpNcj5XbLT-67" style="edgeStyle=orthogonalEdgeStyle;rounded=0;orthogonalLoop=1;jettySize=auto;html=1;exitX=0;exitY=0.75;exitDx=0;exitDy=0;entryX=1;entryY=0.75;entryDx=0;entryDy=0;strokeColor=#007FFF;endSize=4;strokeWidth=2;" edge="1" source="OO4XubUByGKpNcj5XbLT-70" target="OO4XubUByGKpNcj5XbLT-77" parent="1">
          <mxGeometry relative="1" as="geometry" />
        </mxCell>
        <mxCell id="OO4XubUByGKpNcj5XbLT-68" style="edgeStyle=orthogonalEdgeStyle;rounded=0;orthogonalLoop=1;jettySize=auto;html=1;exitX=1;exitY=0.5;exitDx=0;exitDy=0;entryX=0;entryY=0.5;entryDx=0;entryDy=0;strokeColor=#007FFF;endSize=4;strokeWidth=2;" edge="1" source="OO4XubUByGKpNcj5XbLT-70" target="OO4XubUByGKpNcj5XbLT-86" parent="1">
          <mxGeometry relative="1" as="geometry">
            <Array as="points">
              <mxPoint x="5700" y="1002" />
              <mxPoint x="5700" y="1002" />
            </Array>
          </mxGeometry>
        </mxCell>
        <mxCell id="OO4XubUByGKpNcj5XbLT-69" style="edgeStyle=orthogonalEdgeStyle;rounded=0;orthogonalLoop=1;jettySize=auto;html=1;exitX=0.5;exitY=0;exitDx=0;exitDy=0;entryX=0;entryY=0.5;entryDx=0;entryDy=0;strokeColor=#007FFF;fontColor=#A8A8A8;dashed=1;endFill=1;fillColor=#f5f5f5;endSize=4;strokeWidth=2;" edge="1" source="OO4XubUByGKpNcj5XbLT-70" target="OO4XubUByGKpNcj5XbLT-87" parent="1">
          <mxGeometry relative="1" as="geometry" />
        </mxCell>
        <mxCell id="OO4XubUByGKpNcj5XbLT-99" style="edgeStyle=orthogonalEdgeStyle;rounded=0;orthogonalLoop=1;jettySize=auto;html=1;exitX=0.5;exitY=1;exitDx=0;exitDy=0;entryX=0;entryY=0.5;entryDx=0;entryDy=0;endArrow=block;strokeColor=#007FFF;fontColor=#FF0080;endSize=4;strokeWidth=2;endFill=0;dashed=1;fillColor=#f5f5f5;" edge="1" parent="1" source="OO4XubUByGKpNcj5XbLT-70" target="OO4XubUByGKpNcj5XbLT-98">
          <mxGeometry relative="1" as="geometry" />
        </mxCell>
        <mxCell id="OO4XubUByGKpNcj5XbLT-70" value="FeedPresenter" style="rounded=0;whiteSpace=wrap;html=1;fillColor=none;strokeColor=#007FFF;fontColor=#007FFF;fillOpacity=0;strokeWidth=2;flipH=1;" vertex="1" parent="1">
          <mxGeometry x="5558.5" y="986.5" width="121.5" height="30" as="geometry" />
        </mxCell>
        <mxCell id="OO4XubUByGKpNcj5XbLT-71" style="edgeStyle=orthogonalEdgeStyle;rounded=0;orthogonalLoop=1;jettySize=auto;html=1;exitX=0;exitY=0.5;exitDx=0;exitDy=0;entryX=1;entryY=0.5;entryDx=0;entryDy=0;endArrow=block;strokeColor=#00FF00;fontColor=#FF0080;endSize=4;strokeWidth=2;endFill=0;dashed=1;fillColor=#f5f5f5;" edge="1" source="OO4XubUByGKpNcj5XbLT-75" target="OO4XubUByGKpNcj5XbLT-86" parent="1">
          <mxGeometry relative="1" as="geometry" />
        </mxCell>
        <mxCell id="OO4XubUByGKpNcj5XbLT-73" style="edgeStyle=orthogonalEdgeStyle;rounded=0;orthogonalLoop=1;jettySize=auto;html=1;exitX=0.5;exitY=0;exitDx=0;exitDy=0;entryX=1;entryY=0.5;entryDx=0;entryDy=0;strokeColor=#00FF00;endSize=4;strokeWidth=2;" edge="1" source="OO4XubUByGKpNcj5XbLT-75" target="OO4XubUByGKpNcj5XbLT-87" parent="1">
          <mxGeometry relative="1" as="geometry" />
        </mxCell>
        <mxCell id="OO4XubUByGKpNcj5XbLT-74" style="edgeStyle=orthogonalEdgeStyle;rounded=0;orthogonalLoop=1;jettySize=auto;html=1;exitX=1;exitY=0.75;exitDx=0;exitDy=0;entryX=0;entryY=0.75;entryDx=0;entryDy=0;strokeColor=#00FF00;endSize=4;strokeWidth=2;" edge="1" source="OO4XubUByGKpNcj5XbLT-75" target="OO4XubUByGKpNcj5XbLT-94" parent="1">
          <mxGeometry relative="1" as="geometry" />
        </mxCell>
        <mxCell id="OO4XubUByGKpNcj5XbLT-100" style="edgeStyle=orthogonalEdgeStyle;rounded=0;orthogonalLoop=1;jettySize=auto;html=1;exitX=0.5;exitY=1;exitDx=0;exitDy=0;entryX=1;entryY=0.5;entryDx=0;entryDy=0;strokeColor=#00FF00;endSize=4;strokeWidth=2;" edge="1" parent="1" source="OO4XubUByGKpNcj5XbLT-75" target="OO4XubUByGKpNcj5XbLT-98">
          <mxGeometry relative="1" as="geometry" />
        </mxCell>
        <mxCell id="OO4XubUByGKpNcj5XbLT-75" value="FeedRefreshViewController" style="rounded=0;whiteSpace=wrap;html=1;fillColor=none;strokeColor=#66FF66;fontColor=#00FF00;fillOpacity=0;strokeWidth=2;flipH=1;" vertex="1" parent="1">
          <mxGeometry x="5980" y="987" width="178" height="30" as="geometry" />
        </mxCell>
        <mxCell id="OO4XubUByGKpNcj5XbLT-76" style="edgeStyle=orthogonalEdgeStyle;rounded=0;orthogonalLoop=1;jettySize=auto;html=1;exitX=1;exitY=0.25;exitDx=0;exitDy=0;entryX=0;entryY=0.25;entryDx=0;entryDy=0;strokeColor=#FF3333;fontColor=#A8A8A8;dashed=1;endFill=1;fillColor=#f5f5f5;endSize=4;strokeWidth=2;" edge="1" source="OO4XubUByGKpNcj5XbLT-77" target="OO4XubUByGKpNcj5XbLT-70" parent="1">
          <mxGeometry relative="1" as="geometry" />
        </mxCell>
        <mxCell id="OO4XubUByGKpNcj5XbLT-77" value="&amp;lt;FeedLoader&amp;gt;" style="rounded=0;whiteSpace=wrap;html=1;fillColor=#f5f5f5;strokeColor=#FF3333;fontColor=#FF3333;fillOpacity=0;strokeWidth=2;flipH=1;" vertex="1" parent="1">
          <mxGeometry x="5340" y="987" width="94" height="30" as="geometry" />
        </mxCell>
        <mxCell id="OO4XubUByGKpNcj5XbLT-78" value="completion&lt;br style=&quot;font-size: 8px;&quot;&gt;callback" style="text;html=1;strokeColor=none;fillColor=none;align=center;verticalAlign=middle;whiteSpace=wrap;rounded=0;fontSize=8;fontColor=#FF3333;" vertex="1" parent="1">
          <mxGeometry x="5456" y="966" width="60" height="30" as="geometry" />
        </mxCell>
        <mxCell id="OO4XubUByGKpNcj5XbLT-79" value="State&lt;br&gt;isLoading: Bool" style="text;html=1;strokeColor=none;fillColor=none;align=center;verticalAlign=middle;whiteSpace=wrap;rounded=0;fontSize=8;fontColor=#FF3333;" vertex="1" parent="1">
          <mxGeometry x="5354" y="957" width="60" height="30" as="geometry" />
        </mxCell>
        <mxCell id="OO4XubUByGKpNcj5XbLT-80" value="manages" style="text;html=1;strokeColor=none;fillColor=none;align=center;verticalAlign=middle;whiteSpace=wrap;rounded=0;fontSize=8;fontColor=#007FFF;" vertex="1" parent="1">
          <mxGeometry x="5456" y="1003" width="60" height="30" as="geometry" />
        </mxCell>
        <mxCell id="OO4XubUByGKpNcj5XbLT-81" value="Model" style="text;html=1;strokeColor=none;fillColor=none;align=center;verticalAlign=middle;whiteSpace=wrap;rounded=0;fontSize=12;fontColor=#FF3333;" vertex="1" parent="1">
          <mxGeometry x="5357" y="840" width="60" height="30" as="geometry" />
        </mxCell>
        <mxCell id="OO4XubUByGKpNcj5XbLT-82" value="Presenter" style="text;html=1;strokeColor=none;fillColor=none;align=center;verticalAlign=middle;whiteSpace=wrap;rounded=0;fontSize=12;fontColor=#007FFF;" vertex="1" parent="1">
          <mxGeometry x="5740" y="840" width="95" height="30" as="geometry" />
        </mxCell>
        <mxCell id="OO4XubUByGKpNcj5XbLT-83" value="View" style="text;html=1;strokeColor=none;fillColor=none;align=center;verticalAlign=middle;whiteSpace=wrap;rounded=0;fontSize=12;fontColor=#00FF00;" vertex="1" parent="1">
          <mxGeometry x="6130" y="840" width="60" height="30" as="geometry" />
        </mxCell>
        <mxCell id="OO4XubUByGKpNcj5XbLT-84" value="" style="endArrow=classic;html=1;rounded=0;strokeColor=#00FF00;endSize=4;strokeWidth=2;" edge="1" parent="1">
          <mxGeometry width="50" height="50" relative="1" as="geometry">
            <mxPoint x="6110" y="855" as="sourcePoint" />
            <mxPoint x="5845" y="854.5799999999999" as="targetPoint" />
          </mxGeometry>
        </mxCell>
        <mxCell id="OO4XubUByGKpNcj5XbLT-85" style="edgeStyle=orthogonalEdgeStyle;rounded=0;orthogonalLoop=1;jettySize=auto;html=1;exitX=0.5;exitY=0;exitDx=0;exitDy=0;entryX=0.5;entryY=1;entryDx=0;entryDy=0;strokeColor=#007FFF;endSize=4;strokeWidth=2;" edge="1" source="OO4XubUByGKpNcj5XbLT-86" target="OO4XubUByGKpNcj5XbLT-87" parent="1">
          <mxGeometry relative="1" as="geometry" />
        </mxCell>
        <mxCell id="OO4XubUByGKpNcj5XbLT-86" value="&amp;lt;FeedLoadingView&amp;gt;" style="rounded=0;whiteSpace=wrap;html=1;fillColor=none;strokeColor=#007FFF;fontColor=#007FFF;fillOpacity=0;strokeWidth=2;flipH=1;" vertex="1" parent="1">
          <mxGeometry x="5730" y="980" width="210" height="43" as="geometry" />
        </mxCell>
        <mxCell id="OO4XubUByGKpNcj5XbLT-87" value="FeedLoadingViewModel" style="rounded=0;whiteSpace=wrap;html=1;fillColor=none;strokeColor=#007FFF;fontColor=#007FFF;fillOpacity=0;strokeWidth=2;flipH=1;" vertex="1" parent="1">
          <mxGeometry x="5760" y="900" width="150" height="39" as="geometry" />
        </mxCell>
        <mxCell id="OO4XubUByGKpNcj5XbLT-88" value="" style="endArrow=classic;html=1;rounded=0;strokeColor=#007FFF;endSize=4;strokeWidth=2;" edge="1" parent="1">
          <mxGeometry width="50" height="50" relative="1" as="geometry">
            <mxPoint x="5720" y="854" as="sourcePoint" />
            <mxPoint x="5450" y="854.5799999999999" as="targetPoint" />
          </mxGeometry>
        </mxCell>
        <mxCell id="OO4XubUByGKpNcj5XbLT-89" value="updates" style="text;html=1;strokeColor=none;fillColor=none;align=center;verticalAlign=middle;whiteSpace=wrap;rounded=0;fontSize=8;fontColor=#007FFF;" vertex="1" parent="1">
          <mxGeometry x="5673" y="998" width="60" height="30" as="geometry" />
        </mxCell>
        <mxCell id="OO4XubUByGKpNcj5XbLT-90" value="creates" style="text;html=1;strokeColor=none;fillColor=none;align=center;verticalAlign=middle;whiteSpace=wrap;rounded=0;fontSize=8;fontColor=#007FFF;" vertex="1" parent="1">
          <mxGeometry x="5660" y="889" width="60" height="30" as="geometry" />
        </mxCell>
        <mxCell id="OO4XubUByGKpNcj5XbLT-92" value="&amp;lt;DS&amp;gt;" style="text;html=1;strokeColor=none;fillColor=none;align=center;verticalAlign=middle;whiteSpace=wrap;rounded=0;fontSize=8;fontColor=#007FFF;" vertex="1" parent="1">
          <mxGeometry x="5880" y="901" width="30" height="10" as="geometry" />
        </mxCell>
        <mxCell id="OO4XubUByGKpNcj5XbLT-93" style="edgeStyle=orthogonalEdgeStyle;rounded=0;orthogonalLoop=1;jettySize=auto;html=1;exitX=0;exitY=0.25;exitDx=0;exitDy=0;entryX=1;entryY=0.25;entryDx=0;entryDy=0;strokeColor=#00FF00;fontColor=#A8A8A8;dashed=1;endFill=1;fillColor=#f5f5f5;endSize=4;strokeWidth=2;" edge="1" source="OO4XubUByGKpNcj5XbLT-94" target="OO4XubUByGKpNcj5XbLT-75" parent="1">
          <mxGeometry relative="1" as="geometry" />
        </mxCell>
        <mxCell id="OO4XubUByGKpNcj5XbLT-94" value="UIRefreshControl" style="rounded=0;whiteSpace=wrap;html=1;fillColor=none;strokeColor=#66FF66;fontColor=#00FF00;fillOpacity=0;strokeWidth=2;flipH=1;" vertex="1" parent="1">
          <mxGeometry x="6220" y="987" width="120" height="30" as="geometry" />
        </mxCell>
        <mxCell id="OO4XubUByGKpNcj5XbLT-95" value="events" style="text;html=1;strokeColor=none;fillColor=none;align=center;verticalAlign=middle;whiteSpace=wrap;rounded=0;fontSize=8;fontColor=#00FF00;" vertex="1" parent="1">
          <mxGeometry x="6160" y="970.5" width="60" height="30" as="geometry" />
        </mxCell>
        <mxCell id="OO4XubUByGKpNcj5XbLT-96" value="updates" style="text;html=1;strokeColor=none;fillColor=none;align=center;verticalAlign=middle;whiteSpace=wrap;rounded=0;fontSize=8;fontColor=#00FF00;" vertex="1" parent="1">
          <mxGeometry x="6158" y="1002" width="60" height="30" as="geometry" />
        </mxCell>
        <mxCell id="OO4XubUByGKpNcj5XbLT-98" value="&amp;lt;FeedPresenterInput&amp;gt;" style="rounded=0;whiteSpace=wrap;html=1;fillColor=none;strokeColor=#007FFF;fontColor=#007FFF;fillOpacity=0;strokeWidth=2;flipH=1;" vertex="1" parent="1">
          <mxGeometry x="5760" y="1060" width="150" height="39" as="geometry" />
        </mxCell>
        <mxCell id="OO4XubUByGKpNcj5XbLT-101" value="events" style="text;html=1;strokeColor=none;fillColor=none;align=center;verticalAlign=middle;whiteSpace=wrap;rounded=0;fontSize=8;fontColor=#00FF00;" vertex="1" parent="1">
          <mxGeometry x="5970" y="1077" width="60" height="30" as="geometry" />
        </mxCell>
      </root>
    </mxGraphModel>
  </diagram>
</mxfile>
